{"glyphs":{"0":{"ha":875,"x_min":0,"x_max":0,"o":"m 438 -19 b 42 486 186 -19 42 186 b 438 992 42 786 186 992 b 833 486 689 992 833 786 b 438 -19 833 186 689 -19 m 438 197 b 611 486 554 197 611 299 b 438 775 611 674 554 775 b 264 486 321 775 264 674 b 438 197 264 299 321 197 "},"1":{"ha":560,"x_min":0,"x_max":0,"o":"m 463 972 l 463 0 l 240 0 l 240 738 l 68 690 l 14 881 l 268 972 "},"2":{"ha":740,"x_min":0,"x_max":0,"o":"m 31 161 l 357 500 b 456 672 414 558 456 615 b 351 775 456 733 417 775 b 208 669 283 775 235 731 l 21 779 b 349 992 83 924 214 992 b 678 682 522 992 678 878 b 526 376 678 565 615 465 l 365 214 l 692 214 l 692 0 l 31 0 "},"3":{"ha":764,"x_min":0,"x_max":0,"o":"m 515 578 b 722 306 635 536 722 440 b 368 -19 722 92 556 -19 b 28 189 221 -19 88 46 l 219 300 b 368 197 242 236 283 197 b 500 306 460 197 500 246 b 368 414 500 365 460 414 l 322 414 l 238 540 l 414 764 l 58 764 l 58 972 l 683 972 l 683 792 l 515 578 "},"4":{"ha":806,"x_min":0,"x_max":0,"o":"m 792 156 l 694 156 l 694 0 l 469 0 l 469 156 l 28 156 l 28 361 l 338 972 l 576 972 l 267 361 l 469 361 l 469 569 l 694 569 l 694 361 l 792 361 "},"5":{"ha":764,"x_min":0,"x_max":0,"o":"m 396 631 b 729 306 576 631 729 519 b 375 -19 729 92 563 -19 b 28 189 221 -19 88 46 l 219 300 b 375 197 242 236 283 197 b 507 306 467 197 507 246 b 382 414 507 365 467 414 l 78 414 l 118 972 l 681 972 l 681 764 l 326 764 l 317 631 l 396 631 "},"6":{"ha":778,"x_min":0,"x_max":0,"o":"m 426 665 b 750 324 619 650 750 513 b 389 -19 750 122 603 -19 b 28 324 174 -19 28 122 b 85 521 28 399 49 467 l 382 972 l 638 972 l 426 665 m 389 189 b 528 324 463 189 528 239 b 389 458 528 408 463 458 b 250 324 314 458 250 410 b 389 189 250 238 314 189 "},"7":{"ha":681,"x_min":0,"x_max":0,"o":"m 653 972 l 653 786 l 336 0 l 100 0 l 406 758 l 14 758 l 14 972 "},"8":{"ha":797,"x_min":0,"x_max":0,"o":"m 629 507 b 756 274 711 454 756 369 b 399 -19 756 96 628 -19 b 42 274 169 -19 42 96 b 168 507 42 369 86 454 b 75 703 111 551 75 615 b 399 992 75 892 219 992 b 722 703 578 992 722 892 b 629 507 722 615 686 551 m 399 783 b 297 689 336 783 297 743 b 399 594 297 635 336 594 b 500 689 461 594 500 635 b 399 783 500 743 461 783 m 399 189 b 533 306 476 189 533 232 b 399 422 533 379 476 422 b 264 306 321 422 264 379 b 399 189 264 232 321 189 "},"9":{"ha":778,"x_min":0,"x_max":0,"o":"m 750 649 b 693 451 750 574 729 506 l 396 0 l 140 0 l 351 307 b 28 649 158 322 28 460 b 389 992 28 850 175 992 b 750 649 604 992 750 850 m 250 649 b 389 514 250 564 315 514 b 528 649 464 514 528 563 b 389 783 528 735 464 783 b 250 649 315 783 250 733 "},"A":{"ha":944,"x_min":0,"x_max":0,"o":"m 653 153 l 292 153 l 243 0 l 0 0 l 331 972 l 614 972 l 944 0 l 701 0 m 586 361 l 472 718 l 358 361 "},"Á":{"ha":944,"x_min":0,"x_max":0,"o":"m 547 1056 l 347 1056 l 458 1250 l 708 1250 m 653 153 l 292 153 l 243 0 l 0 0 l 331 972 l 614 972 l 944 0 l 701 0 m 586 361 l 472 718 l 358 361 "},"Ă":{"ha":944,"x_min":0,"x_max":0,"o":"m 472 1031 b 229 1239 315 1031 229 1107 l 413 1239 b 472 1175 413 1199 433 1175 b 532 1239 511 1175 532 1199 l 715 1239 b 472 1031 715 1107 629 1031 m 653 153 l 292 153 l 243 0 l 0 0 l 331 972 l 614 972 l 944 0 l 701 0 m 586 361 l 472 718 l 358 361 "},"Â":{"ha":944,"x_min":0,"x_max":0,"o":"m 417 1042 l 215 1042 l 363 1250 l 568 1250 l 715 1042 l 514 1042 l 465 1118 m 653 153 l 292 153 l 243 0 l 0 0 l 331 972 l 614 972 l 944 0 l 701 0 m 586 361 l 472 718 l 358 361 "},"Ä":{"ha":944,"x_min":0,"x_max":0,"o":"m 340 1028 b 236 1132 283 1028 236 1075 b 340 1236 236 1189 283 1236 b 444 1132 397 1236 444 1189 b 340 1028 444 1075 397 1028 m 604 1028 b 500 1132 547 1028 500 1075 b 604 1236 500 1189 547 1236 b 708 1132 661 1236 708 1189 b 604 1028 708 1075 661 1028 m 653 153 l 292 153 l 243 0 l 0 0 l 331 972 l 614 972 l 944 0 l 701 0 m 586 361 l 472 718 l 358 361 "},"À":{"ha":944,"x_min":0,"x_max":0,"o":"m 397 1056 l 236 1250 l 486 1250 l 597 1056 m 653 153 l 292 153 l 243 0 l 0 0 l 331 972 l 614 972 l 944 0 l 701 0 m 586 361 l 472 718 l 358 361 "},"Ā":{"ha":944,"x_min":0,"x_max":0,"o":"m 681 1054 l 264 1054 l 264 1221 l 681 1221 m 653 153 l 292 153 l 243 0 l 0 0 l 331 972 l 614 972 l 944 0 l 701 0 m 586 361 l 472 718 l 358 361 "},"Ą":{"ha":944,"x_min":0,"x_max":0,"o":"m 913 -154 b 944 -149 921 -156 932 -153 l 944 -274 b 822 -297 907 -289 872 -297 b 683 -171 746 -297 683 -258 b 772 0 683 -118 719 -56 l 701 0 l 653 153 l 292 153 l 243 0 l 0 0 l 331 972 l 614 972 l 944 0 b 882 -118 904 -44 882 -89 b 913 -154 881 -140 892 -154 m 586 361 l 472 718 l 358 361 "},"Å":{"ha":944,"x_min":0,"x_max":0,"o":"m 653 153 l 292 153 l 243 0 l 0 0 l 326 960 b 288 1069 301 989 288 1028 b 472 1243 288 1168 364 1243 b 657 1069 583 1243 657 1168 b 618 958 657 1026 643 989 l 944 0 l 701 0 m 472 1117 b 424 1069 440 1117 424 1096 b 472 1022 424 1043 440 1022 b 522 1069 506 1022 522 1043 b 472 1117 522 1096 506 1117 m 586 361 l 472 718 l 358 361 "},"Ã":{"ha":944,"x_min":0,"x_max":0,"o":"m 449 1079 b 389 1046 401 1108 389 1101 l 222 1046 b 494 1231 222 1283 368 1308 b 554 1264 542 1201 554 1208 l 721 1264 b 449 1079 721 1026 575 1001 m 653 153 l 292 153 l 243 0 l 0 0 l 331 972 l 614 972 l 944 0 l 701 0 m 586 361 l 472 718 l 358 361 "},"Æ":{"ha":1222,"x_min":0,"x_max":0,"o":"m 1181 214 l 1181 0 l 625 0 l 625 153 l 339 153 l 250 0 l 0 0 l 568 972 l 1174 972 l 1174 758 l 840 758 l 840 597 l 1139 597 l 1139 386 l 840 386 l 840 214 m 625 361 l 625 644 l 460 361 "},"B":{"ha":833,"x_min":0,"x_max":0,"o":"m 686 504 b 806 285 758 458 806 383 b 492 0 806 113 665 0 l 83 0 l 83 972 l 464 972 b 771 694 633 972 771 863 b 686 504 771 614 739 550 m 306 764 l 306 592 l 464 592 b 549 678 514 592 549 628 b 464 764 549 728 515 764 m 492 208 b 583 301 547 208 583 247 b 492 394 583 356 547 394 l 306 394 l 306 208 l 492 208 "},"C":{"ha":999,"x_min":0,"x_max":0,"o":"m 547 -19 b 42 486 254 -19 42 200 b 547 992 42 772 254 992 b 964 767 724 992 879 904 l 772 656 b 547 775 729 731 646 775 b 264 486 375 775 264 660 b 547 197 264 313 375 197 b 772 317 646 197 731 242 l 964 206 b 547 -19 881 68 725 -19 "},"Ć":{"ha":999,"x_min":0,"x_max":0,"o":"m 622 1069 l 783 1264 l 533 1264 l 422 1069 m 547 -19 b 42 486 254 -19 42 200 b 547 992 42 772 254 992 b 964 767 724 992 879 904 l 772 656 b 547 775 729 731 646 775 b 264 486 375 775 264 660 b 547 197 264 313 375 197 b 772 317 646 197 731 242 l 964 206 b 547 -19 881 68 725 -19 "},"Č":{"ha":999,"x_min":0,"x_max":0,"o":"m 290 1264 l 492 1264 l 540 1188 l 589 1264 l 790 1264 l 643 1056 l 438 1056 m 547 197 b 772 317 646 197 731 242 l 964 206 b 547 -19 881 68 725 -19 b 42 486 254 -19 42 200 b 547 992 42 772 254 992 b 964 767 724 992 879 904 l 772 656 b 547 775 729 731 646 775 b 264 486 375 775 264 660 b 547 197 264 313 375 197 "},"Ç":{"ha":999,"x_min":0,"x_max":0,"o":"m 547 197 b 772 317 646 197 731 242 l 964 206 b 640 -11 896 93 778 14 l 640 -64 b 728 -171 678 -74 728 -104 b 415 -300 728 -258 649 -314 l 415 -156 b 547 -136 506 -162 547 -154 b 474 -108 547 -119 518 -112 l 474 -15 b 42 486 219 18 42 225 b 547 992 42 772 254 992 b 964 767 724 992 879 904 l 772 656 b 547 775 729 731 646 775 b 264 486 375 775 264 660 b 547 197 264 313 375 197 "},"Ċ":{"ha":999,"x_min":0,"x_max":0,"o":"m 547 1049 b 429 1167 483 1049 429 1103 b 547 1285 429 1231 483 1285 b 665 1167 611 1285 665 1231 b 547 1049 665 1103 611 1049 m 547 -19 b 42 486 254 -19 42 200 b 547 992 42 772 254 992 b 964 767 724 992 879 904 l 772 656 b 547 775 729 731 646 775 b 264 486 375 775 264 660 b 547 197 264 313 375 197 b 772 317 646 197 731 242 l 964 206 b 547 -19 881 68 725 -19 "},"D":{"ha":986,"x_min":0,"x_max":0,"o":"m 472 972 b 944 486 740 972 944 761 b 472 0 944 211 740 0 l 83 0 l 83 972 l 472 972 m 472 214 b 731 486 625 214 731 319 b 472 758 731 653 625 758 l 306 758 l 306 214 l 472 214 "},"Ð":{"ha":1042,"x_min":0,"x_max":0,"o":"m 528 972 b 1000 486 796 972 1000 761 b 528 0 1000 211 796 0 l 139 0 l 139 372 l 28 372 l 28 572 l 139 572 l 139 972 l 528 972 m 528 214 b 786 486 681 214 786 319 b 528 758 786 653 681 758 l 361 758 l 361 572 l 556 572 l 556 372 l 361 372 l 361 214 l 528 214 "},"Ď":{"ha":986,"x_min":0,"x_max":0,"o":"m 201 1250 l 403 1250 l 451 1174 l 500 1250 l 701 1250 l 554 1042 l 349 1042 m 472 972 b 944 486 740 972 944 761 b 472 0 944 211 740 0 l 83 0 l 83 972 l 472 972 m 472 214 b 731 486 625 214 731 319 b 472 758 731 653 625 758 l 306 758 l 306 214 l 472 214 "},"Đ":{"ha":1042,"x_min":0,"x_max":0,"o":"m 528 972 b 1000 486 796 972 1000 761 b 528 0 1000 211 796 0 l 139 0 l 139 372 l 28 372 l 28 572 l 139 572 l 139 972 l 528 972 m 528 214 b 786 486 681 214 786 319 b 528 758 786 653 681 758 l 361 758 l 361 572 l 556 572 l 556 372 l 361 372 l 361 214 l 528 214 "},"E":{"ha":736,"x_min":0,"x_max":0,"o":"m 694 214 l 694 0 l 83 0 l 83 972 l 688 972 l 688 758 l 306 758 l 306 597 l 653 597 l 653 386 l 306 386 l 306 214 "},"É":{"ha":736,"x_min":0,"x_max":0,"o":"m 461 1056 l 261 1056 l 372 1250 l 622 1250 m 694 214 l 694 0 l 83 0 l 83 972 l 688 972 l 688 758 l 306 758 l 306 597 l 653 597 l 653 386 l 306 386 l 306 214 "},"Ě":{"ha":736,"x_min":0,"x_max":0,"o":"m 129 1250 l 331 1250 l 379 1174 l 428 1250 l 629 1250 l 482 1042 l 276 1042 m 694 214 l 694 0 l 83 0 l 83 972 l 688 972 l 688 758 l 306 758 l 306 597 l 653 597 l 653 386 l 306 386 l 306 214 "},"Ê":{"ha":736,"x_min":0,"x_max":0,"o":"m 331 1042 l 129 1042 l 276 1250 l 482 1250 l 629 1042 l 428 1042 l 379 1118 m 694 214 l 694 0 l 83 0 l 83 972 l 688 972 l 688 758 l 306 758 l 306 597 l 653 597 l 653 386 l 306 386 l 306 214 "},"Ë":{"ha":736,"x_min":0,"x_max":0,"o":"m 254 1028 b 150 1132 197 1028 150 1075 b 254 1236 150 1189 197 1236 b 358 1132 311 1236 358 1189 b 254 1028 358 1075 311 1028 m 518 1028 b 414 1132 461 1028 414 1075 b 518 1236 414 1189 461 1236 b 622 1132 575 1236 622 1189 b 518 1028 622 1075 575 1028 m 694 214 l 694 0 l 83 0 l 83 972 l 688 972 l 688 758 l 306 758 l 306 597 l 653 597 l 653 386 l 306 386 l 306 214 "},"Ė":{"ha":736,"x_min":0,"x_max":0,"o":"m 386 1035 b 268 1153 322 1035 268 1089 b 386 1271 268 1217 322 1271 b 504 1153 450 1271 504 1217 b 386 1035 504 1089 450 1035 m 694 214 l 694 0 l 83 0 l 83 972 l 688 972 l 688 758 l 306 758 l 306 597 l 653 597 l 653 386 l 306 386 l 306 214 "},"È":{"ha":736,"x_min":0,"x_max":0,"o":"m 311 1056 l 150 1250 l 400 1250 l 511 1056 m 694 214 l 694 0 l 83 0 l 83 972 l 688 972 l 688 758 l 306 758 l 306 597 l 653 597 l 653 386 l 306 386 l 306 214 "},"Ē":{"ha":736,"x_min":0,"x_max":0,"o":"m 594 1054 l 178 1054 l 178 1221 l 594 1221 m 694 214 l 694 0 l 83 0 l 83 972 l 688 972 l 688 758 l 306 758 l 306 597 l 653 597 l 653 386 l 306 386 l 306 214 "},"Ę":{"ha":736,"x_min":0,"x_max":0,"o":"m 694 0 b 632 -118 654 -44 632 -89 b 663 -154 631 -140 642 -154 b 694 -149 671 -156 682 -153 l 694 -274 b 572 -297 657 -289 622 -297 b 433 -171 496 -297 433 -258 b 522 0 433 -118 469 -56 l 83 0 l 83 972 l 688 972 l 688 758 l 306 758 l 306 597 l 653 597 l 653 386 l 306 386 l 306 214 l 694 214 l 694 0 "},"F":{"ha":722,"x_min":0,"x_max":0,"o":"m 306 758 l 306 571 l 667 571 l 667 357 l 306 357 l 306 0 l 83 0 l 83 972 l 674 972 l 674 758 "},"G":{"ha":1088,"x_min":0,"x_max":0,"o":"m 1046 458 b 567 -19 1046 161 839 -19 b 42 485 261 -19 42 206 b 551 992 42 767 265 992 b 976 769 738 992 894 900 l 788 661 b 550 775 747 725 660 775 b 264 483 386 775 264 654 b 569 197 264 318 381 197 b 818 347 699 197 783 254 l 558 347 l 558 542 l 1046 542 "},"Ğ":{"ha":1088,"x_min":0,"x_max":0,"o":"m 554 1044 b 311 1253 397 1044 311 1121 l 494 1253 b 554 1189 494 1213 515 1189 b 614 1253 593 1189 614 1213 l 797 1253 b 554 1044 797 1121 711 1044 m 1046 458 b 567 -19 1046 161 839 -19 b 42 485 261 -19 42 206 b 551 992 42 767 265 992 b 976 769 738 992 894 900 l 788 661 b 550 775 747 725 660 775 b 264 483 386 775 264 654 b 569 197 264 318 381 197 b 818 347 699 197 783 254 l 558 347 l 558 542 l 1046 542 "},"Ģ":{"ha":1088,"x_min":0,"x_max":0,"o":"m 1046 458 b 567 -19 1046 161 839 -19 b 42 485 261 -19 42 206 b 551 992 42 767 265 992 b 976 769 738 992 894 900 l 788 661 b 550 775 747 725 660 775 b 264 483 386 775 264 654 b 569 197 264 318 381 197 b 818 347 699 197 783 254 l 558 347 l 558 542 l 1046 542 m 468 -83 l 663 -83 l 621 -375 l 454 -375 "},"Ġ":{"ha":1088,"x_min":0,"x_max":0,"o":"m 554 1049 b 436 1167 490 1049 436 1103 b 554 1285 436 1231 490 1285 b 672 1167 618 1285 672 1231 b 554 1049 672 1103 618 1049 m 1046 458 b 567 -19 1046 161 839 -19 b 42 485 261 -19 42 206 b 551 992 42 767 265 992 b 976 769 738 992 894 900 l 788 661 b 550 775 747 725 660 775 b 264 483 386 775 264 654 b 569 197 264 318 381 197 b 818 347 699 197 783 254 l 558 347 l 558 542 l 1046 542 "},"H":{"ha":917,"x_min":0,"x_max":0,"o":"m 833 972 l 833 0 l 611 0 l 611 386 l 306 386 l 306 0 l 83 0 l 83 972 l 306 972 l 306 600 l 611 600 l 611 972 "},"Ħ":{"ha":972,"x_min":0,"x_max":0,"o":"m 944 690 l 861 690 l 861 0 l 639 0 l 639 351 l 333 351 l 333 0 l 111 0 l 111 690 l 28 690 l 28 851 l 111 851 l 111 972 l 333 972 l 333 851 l 639 851 l 639 972 l 861 972 l 861 851 l 944 851 m 639 690 l 333 690 l 333 565 l 639 565 "},"I":{"ha":389,"x_min":0,"x_max":0,"o":"m 306 972 l 306 0 l 83 0 l 83 972 "},"Í":{"ha":389,"x_min":0,"x_max":0,"o":"m 269 1056 l 431 1250 l 181 1250 l 69 1056 m 306 972 l 306 0 l 83 0 l 83 972 "},"Î":{"ha":389,"x_min":0,"x_max":0,"o":"m 139 1042 l -62 1042 l 85 1250 l 290 1250 l 438 1042 l 236 1042 l 188 1118 m 83 972 l 306 972 l 306 0 l 83 0 "},"Ï":{"ha":389,"x_min":0,"x_max":0,"o":"m 63 1028 b -42 1132 6 1028 -42 1075 b 63 1236 -42 1189 6 1236 b 167 1132 119 1236 167 1189 b 63 1028 167 1075 119 1028 m 326 1028 b 222 1132 269 1028 222 1075 b 326 1236 222 1189 269 1236 b 431 1132 383 1236 431 1189 b 326 1028 431 1075 383 1028 m 306 972 l 306 0 l 83 0 l 83 972 "},"İ":{"ha":389,"x_min":0,"x_max":0,"o":"m 194 1035 b 76 1153 131 1035 76 1089 b 194 1271 76 1217 131 1271 b 313 1153 258 1271 313 1217 b 194 1035 313 1089 258 1035 m 306 972 l 306 0 l 83 0 l 83 972 "},"Ì":{"ha":389,"x_min":0,"x_max":0,"o":"m 208 1250 l -42 1250 l 119 1056 l 319 1056 m 306 972 l 306 0 l 83 0 l 83 972 "},"Ī":{"ha":389,"x_min":0,"x_max":0,"o":"m -14 1221 l 403 1221 l 403 1054 l -14 1054 m 306 972 l 306 0 l 83 0 l 83 972 "},"Į":{"ha":389,"x_min":0,"x_max":0,"o":"m 294 -154 b 326 -149 303 -156 314 -153 l 326 -274 b 204 -297 289 -289 254 -297 b 65 -171 128 -297 65 -258 b 133 0 65 -118 92 -56 l 83 0 l 83 972 l 306 972 l 306 0 b 264 -118 276 -44 264 -89 b 294 -154 263 -140 274 -154 "},"J":{"ha":797,"x_min":0,"x_max":0,"o":"m 371 -19 b 42 169 217 -19 106 46 l 235 281 b 372 197 265 226 297 197 b 499 313 469 197 499 253 l 499 972 l 721 972 l 721 313 b 371 -19 721 99 571 -19 "},"K":{"ha":869,"x_min":0,"x_max":0,"o":"m 617 0 l 306 450 l 306 0 l 83 0 l 83 972 l 306 972 l 306 550 l 603 972 l 856 972 l 528 499 l 869 0 "},"Ķ":{"ha":869,"x_min":0,"x_max":0,"o":"m 869 0 l 617 0 l 306 450 l 306 0 l 83 0 l 83 972 l 306 972 l 306 550 l 603 972 l 856 972 l 528 499 m 340 -83 l 535 -83 l 493 -375 l 326 -375 "},"L":{"ha":667,"x_min":0,"x_max":0,"o":"m 653 214 l 653 0 l 83 0 l 83 972 l 306 972 l 306 214 "},"Ĺ":{"ha":667,"x_min":0,"x_max":0,"o":"m 286 1056 l 86 1056 l 197 1250 l 447 1250 m 653 214 l 653 0 l 83 0 l 83 972 l 306 972 l 306 214 "},"Ľ":{"ha":667,"x_min":0,"x_max":0,"o":"m 653 214 l 653 0 l 83 0 l 83 972 l 306 972 l 306 214 m 557 708 l 376 708 l 390 972 l 599 972 "},"Ļ":{"ha":667,"x_min":0,"x_max":0,"o":"m 653 214 l 653 0 l 83 0 l 83 972 l 306 972 l 306 214 m 289 -83 l 483 -83 l 442 -375 l 275 -375 "},"Ł":{"ha":694,"x_min":0,"x_max":0,"o":"m 681 214 l 681 0 l 111 0 l 111 276 l 28 226 l 28 453 l 111 503 l 111 972 l 333 972 l 333 635 l 500 735 l 500 508 l 333 408 l 333 214 "},"M":{"ha":1139,"x_min":0,"x_max":0,"o":"m 1056 0 l 833 0 l 833 565 l 582 153 l 557 153 l 306 565 l 306 0 l 83 0 l 83 972 l 306 972 l 569 540 l 833 972 l 1056 972 "},"N":{"ha":931,"x_min":0,"x_max":0,"o":"m 847 972 l 847 0 l 681 0 l 306 528 l 306 0 l 83 0 l 83 972 l 250 972 l 625 444 l 625 972 "},"Ń":{"ha":931,"x_min":0,"x_max":0,"o":"m 526 1056 l 688 1250 l 438 1250 l 326 1056 m 847 972 l 847 0 l 681 0 l 306 528 l 306 0 l 83 0 l 83 972 l 250 972 l 625 444 l 625 972 "},"Ň":{"ha":931,"x_min":0,"x_max":0,"o":"m 194 1250 l 396 1250 l 444 1174 l 493 1250 l 694 1250 l 547 1042 l 342 1042 m 847 972 l 847 0 l 681 0 l 306 528 l 306 0 l 83 0 l 83 972 l 250 972 l 625 444 l 625 972 "},"Ņ":{"ha":931,"x_min":0,"x_max":0,"o":"m 847 972 l 847 0 l 681 0 l 306 528 l 306 0 l 83 0 l 83 972 l 250 972 l 625 444 l 625 972 m 574 -83 l 379 -83 l 365 -375 l 532 -375 "},"Ŋ":{"ha":931,"x_min":0,"x_max":0,"o":"m 847 972 l 847 0 b 514 -278 847 -182 733 -292 l 514 -76 b 625 14 588 -76 625 -54 l 625 78 l 306 528 l 306 0 l 83 0 l 83 972 l 250 972 l 625 444 l 625 972 "},"Ñ":{"ha":931,"x_min":0,"x_max":0,"o":"m 201 1046 b 474 1231 201 1283 347 1308 b 533 1264 521 1201 533 1208 l 700 1264 b 428 1079 700 1026 554 1001 b 368 1046 381 1108 368 1101 l 201 1046 m 847 972 l 847 0 l 681 0 l 306 528 l 306 0 l 83 0 l 83 972 l 250 972 l 625 444 l 625 972 "},"O":{"ha":1094,"x_min":0,"x_max":0,"o":"m 547 -19 b 42 486 268 -19 42 200 b 547 992 42 772 268 992 b 1053 486 826 992 1053 772 b 547 -19 1053 200 826 -19 m 547 197 b 831 486 706 197 831 313 b 547 775 831 660 706 775 b 264 486 389 775 264 660 b 547 197 264 313 389 197 "},"Ó":{"ha":1094,"x_min":0,"x_max":0,"o":"m 622 1069 l 783 1264 l 533 1264 l 422 1069 m 547 -19 b 42 486 268 -19 42 200 b 547 992 42 772 268 992 b 1053 486 826 992 1053 772 b 547 -19 1053 200 826 -19 m 547 197 b 831 486 706 197 831 313 b 547 775 831 660 706 775 b 264 486 389 775 264 660 b 547 197 264 313 389 197 "},"Ô":{"ha":1094,"x_min":0,"x_max":0,"o":"m 492 1056 l 290 1056 l 438 1264 l 643 1264 l 790 1056 l 589 1056 l 540 1132 m 547 992 b 1053 486 826 992 1053 772 b 547 -19 1053 200 826 -19 b 42 486 268 -19 42 200 b 547 992 42 772 268 992 m 547 197 b 831 486 706 197 831 313 b 547 775 831 660 706 775 b 264 486 389 775 264 660 b 547 197 264 313 389 197 "},"Ö":{"ha":1094,"x_min":0,"x_max":0,"o":"m 415 1042 b 311 1146 358 1042 311 1089 b 415 1250 311 1203 358 1250 b 519 1146 472 1250 519 1203 b 415 1042 519 1089 472 1042 m 679 1042 b 575 1146 622 1042 575 1089 b 679 1250 575 1203 622 1250 b 783 1146 736 1250 783 1203 b 679 1042 783 1089 736 1042 m 547 -19 b 42 486 268 -19 42 200 b 547 992 42 772 268 992 b 1053 486 826 992 1053 772 b 547 -19 1053 200 826 -19 m 547 197 b 831 486 706 197 831 313 b 547 775 831 660 706 775 b 264 486 389 775 264 660 b 547 197 264 313 389 197 "},"Ò":{"ha":1094,"x_min":0,"x_max":0,"o":"m 561 1264 l 311 1264 l 472 1069 l 672 1069 m 547 -19 b 42 486 268 -19 42 200 b 547 992 42 772 268 992 b 1053 486 826 992 1053 772 b 547 -19 1053 200 826 -19 m 547 197 b 831 486 706 197 831 313 b 547 775 831 660 706 775 b 264 486 389 775 264 660 b 547 197 264 313 389 197 "},"Ő":{"ha":1094,"x_min":0,"x_max":0,"o":"m 489 1056 l 608 1250 l 394 1250 l 283 1056 m 743 1056 l 876 1250 l 663 1250 l 538 1056 m 547 -19 b 42 486 268 -19 42 200 b 547 992 42 772 268 992 b 1053 486 826 992 1053 772 b 547 -19 1053 200 826 -19 m 547 197 b 831 486 706 197 831 313 b 547 775 831 660 706 775 b 264 486 389 775 264 660 b 547 197 264 313 389 197 "},"Ō":{"ha":1094,"x_min":0,"x_max":0,"o":"m 339 1235 l 756 1235 l 756 1068 l 339 1068 m 547 -19 b 42 486 268 -19 42 200 b 547 992 42 772 268 992 b 1053 486 826 992 1053 772 b 547 -19 1053 200 826 -19 m 547 197 b 831 486 706 197 831 313 b 547 775 831 660 706 775 b 264 486 389 775 264 660 b 547 197 264 313 389 197 "},"Ø":{"ha":1101,"x_min":0,"x_max":0,"o":"m 919 839 b 1060 486 1007 749 1060 625 b 554 -19 1060 200 833 -19 b 281 58 454 -19 360 10 l 217 -19 l 113 40 l 189 133 b 49 486 101 224 49 347 b 554 992 49 772 275 992 b 828 914 654 992 749 963 l 892 992 l 996 932 l 919 839 m 271 486 b 329 304 271 414 292 353 l 689 743 b 554 775 649 764 603 775 b 271 486 396 775 271 660 m 554 197 b 838 486 713 197 838 313 b 779 668 838 558 817 619 l 419 229 b 554 197 460 208 506 197 "},"Õ":{"ha":1094,"x_min":0,"x_max":0,"o":"m 297 1060 b 569 1244 297 1297 443 1322 b 629 1278 617 1215 629 1222 l 796 1278 b 524 1093 796 1040 650 1015 b 464 1060 476 1122 464 1115 l 297 1060 m 547 -19 b 42 486 268 -19 42 200 b 547 992 42 772 268 992 b 1053 486 826 992 1053 772 b 547 -19 1053 200 826 -19 m 547 197 b 831 486 706 197 831 313 b 547 775 831 660 706 775 b 264 486 389 775 264 660 b 547 197 264 313 389 197 "},"Œ":{"ha":1272,"x_min":0,"x_max":0,"o":"m 1231 214 l 1231 0 l 675 0 b 533 -19 631 -12 583 -19 b 42 486 254 -19 42 200 b 533 992 42 772 254 992 b 675 972 583 992 631 985 l 1224 972 l 1224 758 l 897 758 l 897 597 l 1189 597 l 1189 386 l 897 386 l 897 214 m 675 754 b 533 775 633 769 585 775 b 264 486 375 775 264 660 b 533 197 264 313 375 197 b 675 218 585 197 633 203 "},"P":{"ha":819,"x_min":0,"x_max":0,"o":"m 451 972 b 792 639 643 972 792 824 b 451 306 792 454 643 306 l 306 306 l 306 0 l 83 0 l 83 972 l 451 972 m 451 514 b 569 639 519 514 569 568 b 451 764 569 710 519 764 l 306 764 l 306 514 l 451 514 "},"Þ":{"ha":819,"x_min":0,"x_max":0,"o":"m 458 819 b 792 486 643 819 792 671 b 458 153 792 301 643 153 l 306 153 l 306 0 l 83 0 l 83 972 l 306 972 l 306 819 l 458 819 m 458 361 b 569 486 519 361 569 415 b 458 611 569 557 519 611 l 306 611 l 306 361 l 458 361 "},"Q":{"ha":1101,"x_min":0,"x_max":0,"o":"m 1053 486 b 942 168 1053 364 1011 254 l 1039 65 l 879 -76 l 775 33 b 547 -19 707 0 629 -19 b 42 486 268 -19 42 200 b 547 992 42 772 268 992 b 1053 486 826 992 1053 772 m 547 197 b 615 204 571 197 593 200 l 475 353 l 635 494 l 790 329 b 831 486 815 374 831 426 b 547 775 831 660 706 775 b 264 486 389 775 264 660 b 547 197 264 313 389 197 "},"R":{"ha":854,"x_min":0,"x_max":0,"o":"m 411 319 l 306 319 l 306 0 l 83 0 l 83 972 l 472 972 b 806 639 657 972 806 824 b 626 357 806 519 733 411 l 833 0 l 594 0 m 306 514 l 472 514 b 583 639 533 514 583 568 b 472 764 583 710 533 764 l 306 764 "},"Ŕ":{"ha":854,"x_min":0,"x_max":0,"o":"m 478 1056 l 278 1056 l 389 1250 l 639 1250 m 411 319 l 306 319 l 306 0 l 83 0 l 83 972 l 472 972 b 806 639 657 972 806 824 b 626 357 806 519 733 411 l 833 0 l 594 0 m 306 514 l 472 514 b 583 639 533 514 583 568 b 472 764 583 710 533 764 l 306 764 "},"Ř":{"ha":854,"x_min":0,"x_max":0,"o":"m 146 1250 l 347 1250 l 396 1174 l 444 1250 l 646 1250 l 499 1042 l 293 1042 m 411 319 l 306 319 l 306 0 l 83 0 l 83 972 l 472 972 b 806 639 657 972 806 824 b 626 357 806 519 733 411 l 833 0 l 594 0 m 306 514 l 472 514 b 583 639 533 514 583 568 b 472 764 583 710 533 764 l 306 764 "},"Ŗ":{"ha":854,"x_min":0,"x_max":0,"o":"m 833 0 l 594 0 l 411 319 l 306 319 l 306 0 l 83 0 l 83 972 l 472 972 b 806 639 657 972 806 824 b 626 357 806 519 733 411 m 306 514 l 472 514 b 583 639 533 514 583 568 b 472 764 583 710 533 764 l 306 764 m 358 -83 l 553 -83 l 511 -375 l 344 -375 "},"S":{"ha":813,"x_min":0,"x_max":0,"o":"m 424 -19 b 35 221 219 -19 89 78 l 226 332 b 431 197 261 251 321 197 b 563 276 536 197 563 239 b 361 400 563 336 507 360 b 75 696 217 440 75 510 b 401 992 75 883 233 992 b 757 772 561 992 686 915 l 569 663 b 401 775 536 732 490 775 b 297 701 332 775 297 740 b 472 581 297 657 321 626 b 785 279 619 536 785 485 b 424 -19 785 92 635 -19 "},"Ś":{"ha":813,"x_min":0,"x_max":0,"o":"m 486 1069 l 647 1264 l 397 1264 l 286 1069 m 424 -19 b 35 221 219 -19 89 78 l 226 332 b 431 197 261 251 321 197 b 563 276 536 197 563 239 b 361 400 563 336 507 360 b 75 696 217 440 75 510 b 401 992 75 883 233 992 b 757 772 561 992 686 915 l 569 663 b 401 775 536 732 490 775 b 297 701 332 775 297 740 b 472 581 297 657 321 626 b 785 279 619 536 785 485 b 424 -19 785 92 635 -19 "},"Š":{"ha":813,"x_min":0,"x_max":0,"o":"m 154 1264 l 356 1264 l 404 1188 l 453 1264 l 654 1264 l 507 1056 l 301 1056 m 472 581 b 785 279 619 536 785 485 b 424 -19 785 92 635 -19 b 35 221 219 -19 89 78 l 226 332 b 431 197 261 251 321 197 b 563 276 536 197 563 239 b 361 400 563 336 507 360 b 75 696 217 440 75 510 b 401 992 75 883 233 992 b 757 772 561 992 686 915 l 569 663 b 401 775 536 732 490 775 b 297 701 332 775 297 740 b 472 581 297 657 321 626 "},"Ş":{"ha":813,"x_min":0,"x_max":0,"o":"m 785 279 b 515 -12 785 121 676 17 l 515 -64 b 603 -171 553 -74 603 -104 b 290 -300 603 -258 524 -314 l 290 -156 b 422 -136 381 -162 422 -154 b 349 -108 422 -119 393 -112 l 349 -15 b 35 221 188 7 82 96 l 226 332 b 431 197 261 251 321 197 b 563 276 536 197 563 239 b 361 400 563 336 507 360 b 75 696 217 440 75 510 b 401 992 75 883 233 992 b 757 772 561 992 686 915 l 569 663 b 401 775 536 732 490 775 b 297 701 332 775 297 740 b 472 581 297 657 321 626 b 785 279 619 536 785 485 "},"Ș":{"ha":813,"x_min":0,"x_max":0,"o":"m 424 -19 b 35 221 219 -19 89 78 l 226 332 b 431 197 261 251 321 197 b 563 276 536 197 563 239 b 361 400 563 336 507 360 b 75 696 217 440 75 510 b 401 992 75 883 233 992 b 757 772 561 992 686 915 l 569 663 b 401 775 536 732 490 775 b 297 701 332 775 297 740 b 472 581 297 657 321 626 b 785 279 619 536 785 485 b 424 -19 785 92 635 -19 m 531 -83 l 336 -83 l 322 -375 l 489 -375 "},"T":{"ha":750,"x_min":0,"x_max":0,"o":"m 736 758 l 486 758 l 486 0 l 264 0 l 264 758 l 14 758 l 14 972 l 736 972 "},"Ŧ":{"ha":750,"x_min":0,"x_max":0,"o":"m 486 758 l 486 572 l 639 572 l 639 372 l 486 372 l 486 0 l 264 0 l 264 372 l 111 372 l 111 572 l 264 572 l 264 758 l 14 758 l 14 972 l 736 972 l 736 758 "},"Ť":{"ha":750,"x_min":0,"x_max":0,"o":"m 118 1250 l 319 1250 l 368 1174 l 417 1250 l 618 1250 l 471 1042 l 265 1042 m 736 758 l 486 758 l 486 0 l 264 0 l 264 758 l 14 758 l 14 972 l 736 972 "},"Ţ":{"ha":750,"x_min":0,"x_max":0,"o":"m 736 758 l 486 758 l 486 0 l 264 0 l 264 758 l 14 758 l 14 972 l 736 972 m 289 -83 l 483 -83 l 442 -375 l 275 -375 "},"Ț":{"ha":750,"x_min":0,"x_max":0,"o":"m 736 758 l 486 758 l 486 0 l 264 0 l 264 758 l 14 758 l 14 972 l 736 972 m 289 -83 l 483 -83 l 442 -375 l 275 -375 "},"U":{"ha":903,"x_min":0,"x_max":0,"o":"m 451 -19 b 76 314 238 -19 76 106 l 76 972 l 299 972 l 299 333 b 451 197 299 260 333 197 b 604 333 569 197 604 260 l 604 972 l 826 972 l 826 314 b 451 -19 826 106 665 -19 "},"Ú":{"ha":903,"x_min":0,"x_max":0,"o":"m 526 1056 l 688 1250 l 438 1250 l 326 1056 m 451 -19 b 76 314 238 -19 76 106 l 76 972 l 299 972 l 299 333 b 451 197 299 260 333 197 b 604 333 569 197 604 260 l 604 972 l 826 972 l 826 314 b 451 -19 826 106 665 -19 "},"Û":{"ha":903,"x_min":0,"x_max":0,"o":"m 396 1042 l 194 1042 l 342 1250 l 547 1250 l 694 1042 l 493 1042 l 444 1118 m 826 972 l 826 314 b 451 -19 826 106 665 -19 b 76 314 238 -19 76 106 l 76 972 l 299 972 l 299 333 b 451 197 299 260 333 197 b 604 333 569 197 604 260 l 604 972 "},"Ü":{"ha":903,"x_min":0,"x_max":0,"o":"m 319 1028 b 215 1132 263 1028 215 1075 b 319 1236 215 1189 263 1236 b 424 1132 376 1236 424 1189 b 319 1028 424 1075 376 1028 m 583 1028 b 479 1132 526 1028 479 1075 b 583 1236 479 1189 526 1236 b 688 1132 640 1236 688 1189 b 583 1028 688 1075 640 1028 m 451 -19 b 76 314 238 -19 76 106 l 76 972 l 299 972 l 299 333 b 451 197 299 260 333 197 b 604 333 569 197 604 260 l 604 972 l 826 972 l 826 314 b 451 -19 826 106 665 -19 "},"Ù":{"ha":903,"x_min":0,"x_max":0,"o":"m 465 1250 l 215 1250 l 376 1056 l 576 1056 m 451 -19 b 76 314 238 -19 76 106 l 76 972 l 299 972 l 299 333 b 451 197 299 260 333 197 b 604 333 569 197 604 260 l 604 972 l 826 972 l 826 314 b 451 -19 826 106 665 -19 "},"Ű":{"ha":903,"x_min":0,"x_max":0,"o":"m 393 1042 l 513 1236 l 299 1236 l 188 1042 m 647 1042 l 781 1236 l 567 1236 l 442 1042 m 451 -19 b 76 314 238 -19 76 106 l 76 972 l 299 972 l 299 333 b 451 197 299 260 333 197 b 604 333 569 197 604 260 l 604 972 l 826 972 l 826 314 b 451 -19 826 106 665 -19 "},"Ū":{"ha":903,"x_min":0,"x_max":0,"o":"m 243 1221 l 660 1221 l 660 1054 l 243 1054 m 451 -19 b 76 314 238 -19 76 106 l 76 972 l 299 972 l 299 333 b 451 197 299 260 333 197 b 604 333 569 197 604 260 l 604 972 l 826 972 l 826 314 b 451 -19 826 106 665 -19 "},"Ų":{"ha":903,"x_min":0,"x_max":0,"o":"m 826 972 l 826 314 b 707 60 826 204 781 117 b 586 -118 617 -24 589 -67 b 617 -154 585 -140 596 -151 b 649 -149 625 -156 636 -153 l 649 -274 b 526 -297 611 -289 576 -297 b 388 -171 450 -297 388 -258 b 458 -19 388 -124 415 -69 l 451 -19 b 76 314 238 -19 76 106 l 76 972 l 299 972 l 299 333 b 451 197 299 260 333 197 b 604 333 569 197 604 260 l 604 972 "},"Ů":{"ha":903,"x_min":0,"x_max":0,"o":"m 451 979 b 267 1153 343 979 267 1054 b 451 1326 267 1251 343 1326 b 636 1153 563 1326 636 1251 b 451 979 636 1054 563 979 m 451 1106 b 501 1153 485 1106 501 1126 b 451 1200 501 1179 485 1200 b 403 1153 419 1200 403 1179 b 451 1106 403 1126 419 1106 m 451 -19 b 76 314 238 -19 76 106 l 76 972 l 299 972 l 299 333 b 451 197 299 260 333 197 b 604 333 569 197 604 260 l 604 972 l 826 972 l 826 314 b 451 -19 826 106 665 -19 "},"V":{"ha":917,"x_min":0,"x_max":0,"o":"m 0 972 l 243 972 l 458 257 l 674 972 l 917 972 l 600 0 l 317 0 "},"W":{"ha":1386,"x_min":0,"x_max":0,"o":"m 14 972 l 247 972 l 415 292 l 603 972 l 783 972 l 971 292 l 1139 972 l 1372 972 l 1104 0 l 851 0 l 693 574 l 535 0 l 282 0 "},"Ẃ":{"ha":1386,"x_min":0,"x_max":0,"o":"m 822 1056 l 983 1250 l 733 1250 l 622 1056 m 14 972 l 247 972 l 415 292 l 603 972 l 783 972 l 971 292 l 1139 972 l 1372 972 l 1104 0 l 851 0 l 693 574 l 535 0 l 282 0 "},"Ŵ":{"ha":1386,"x_min":0,"x_max":0,"o":"m 692 1042 l 490 1042 l 638 1250 l 843 1250 l 990 1042 l 789 1042 l 740 1118 m 1372 972 l 1104 0 l 851 0 l 693 574 l 535 0 l 282 0 l 14 972 l 247 972 l 415 292 l 603 972 l 783 972 l 971 292 l 1139 972 "},"Ẅ":{"ha":1386,"x_min":0,"x_max":0,"o":"m 615 1028 b 511 1132 558 1028 511 1075 b 615 1236 511 1189 558 1236 b 719 1132 672 1236 719 1189 b 615 1028 719 1075 672 1028 m 879 1028 b 775 1132 822 1028 775 1075 b 879 1236 775 1189 822 1236 b 983 1132 936 1236 983 1189 b 879 1028 983 1075 936 1028 m 14 972 l 247 972 l 415 292 l 603 972 l 783 972 l 971 292 l 1139 972 l 1372 972 l 1104 0 l 851 0 l 693 574 l 535 0 l 282 0 "},"Ẁ":{"ha":1386,"x_min":0,"x_max":0,"o":"m 761 1250 l 511 1250 l 672 1056 l 872 1056 m 14 972 l 247 972 l 415 292 l 603 972 l 783 972 l 971 292 l 1139 972 l 1372 972 l 1104 0 l 851 0 l 693 574 l 535 0 l 282 0 "},"X":{"ha":861,"x_min":0,"x_max":0,"o":"m 594 0 l 431 281 l 267 0 l 14 0 l 304 499 l 28 972 l 281 972 l 431 715 l 581 972 l 833 972 l 557 499 l 847 0 "},"Y":{"ha":875,"x_min":0,"x_max":0,"o":"m 549 374 l 549 0 l 326 0 l 326 374 l 0 972 l 253 972 l 438 597 l 622 972 l 875 972 "},"Ý":{"ha":875,"x_min":0,"x_max":0,"o":"m 513 1056 l 313 1056 l 424 1250 l 674 1250 m 549 374 l 549 0 l 326 0 l 326 374 l 0 972 l 253 972 l 438 597 l 622 972 l 875 972 "},"Ŷ":{"ha":875,"x_min":0,"x_max":0,"o":"m 382 1042 l 181 1042 l 328 1250 l 533 1250 l 681 1042 l 479 1042 l 431 1118 m 549 374 l 549 0 l 326 0 l 326 374 l 0 972 l 253 972 l 438 597 l 622 972 l 875 972 "},"Ÿ":{"ha":875,"x_min":0,"x_max":0,"o":"m 306 1028 b 201 1132 249 1028 201 1075 b 306 1236 201 1189 249 1236 b 410 1132 363 1236 410 1189 b 306 1028 410 1075 363 1028 m 569 1028 b 465 1132 513 1028 465 1075 b 569 1236 465 1189 513 1236 b 674 1132 626 1236 674 1189 b 569 1028 674 1075 626 1028 m 549 374 l 549 0 l 326 0 l 326 374 l 0 972 l 253 972 l 438 597 l 622 972 l 875 972 "},"Ỳ":{"ha":875,"x_min":0,"x_max":0,"o":"m 363 1056 l 201 1250 l 451 1250 l 563 1056 m 549 374 l 549 0 l 326 0 l 326 374 l 0 972 l 253 972 l 438 597 l 622 972 l 875 972 "},"Z":{"ha":750,"x_min":0,"x_max":0,"o":"m 715 214 l 715 0 l 49 0 l 49 172 l 421 758 l 56 758 l 56 972 l 708 972 l 708 800 l 336 214 "},"Ź":{"ha":750,"x_min":0,"x_max":0,"o":"m 457 1056 l 257 1056 l 368 1250 l 618 1250 m 715 214 l 715 0 l 49 0 l 49 172 l 421 758 l 56 758 l 56 972 l 708 972 l 708 800 l 336 214 "},"Ž":{"ha":750,"x_min":0,"x_max":0,"o":"m 125 1250 l 326 1250 l 375 1174 l 424 1250 l 625 1250 l 478 1042 l 272 1042 m 715 214 l 715 0 l 49 0 l 49 172 l 421 758 l 56 758 l 56 972 l 708 972 l 708 800 l 336 214 "},"Ż":{"ha":750,"x_min":0,"x_max":0,"o":"m 382 1035 b 264 1153 318 1035 264 1089 b 382 1271 264 1217 318 1271 b 500 1153 446 1271 500 1217 b 382 1035 500 1089 446 1035 m 715 214 l 715 0 l 49 0 l 49 172 l 421 758 l 56 758 l 56 972 l 708 972 l 708 800 l 336 214 "},"a":{"ha":865,"x_min":0,"x_max":0,"o":"m 789 694 l 789 0 l 581 0 l 581 65 b 374 -19 535 13 467 -19 b 42 347 192 -19 42 140 b 374 714 42 554 192 714 b 581 629 467 714 535 682 l 581 694 m 415 178 b 581 347 511 178 581 243 b 415 517 581 451 511 517 b 250 347 319 517 250 451 b 415 178 250 243 319 178 "},"á":{"ha":865,"x_min":0,"x_max":0,"o":"m 506 778 l 306 778 l 417 972 l 667 972 m 789 694 l 789 0 l 581 0 l 581 65 b 374 -19 535 13 467 -19 b 42 347 192 -19 42 140 b 374 714 42 554 192 714 b 581 629 467 714 535 682 l 581 694 m 415 178 b 581 347 511 178 581 243 b 415 517 581 451 511 517 b 250 347 319 517 250 451 b 415 178 250 243 319 178 "},"ă":{"ha":865,"x_min":0,"x_max":0,"o":"m 431 753 b 188 961 274 753 188 829 l 371 961 b 431 897 371 921 392 897 b 490 961 469 897 490 921 l 674 961 b 431 753 674 829 588 753 m 789 694 l 789 0 l 581 0 l 581 65 b 374 -19 535 13 467 -19 b 42 347 192 -19 42 140 b 374 714 42 554 192 714 b 581 629 467 714 535 682 l 581 694 m 415 178 b 581 347 511 178 581 243 b 415 517 581 451 511 517 b 250 347 319 517 250 451 b 415 178 250 243 319 178 "},"â":{"ha":865,"x_min":0,"x_max":0,"o":"m 375 764 l 174 764 l 321 972 l 526 972 l 674 764 l 472 764 l 424 840 m 789 694 l 789 0 l 581 0 l 581 65 b 374 -19 535 13 467 -19 b 42 347 192 -19 42 140 b 374 714 42 554 192 714 b 581 629 467 714 535 682 l 581 694 m 415 178 b 581 347 511 178 581 243 b 415 517 581 451 511 517 b 250 347 319 517 250 451 b 415 178 250 243 319 178 "},"ä":{"ha":865,"x_min":0,"x_max":0,"o":"m 299 750 b 194 854 242 750 194 797 b 299 958 194 911 242 958 b 403 854 356 958 403 911 b 299 750 403 797 356 750 m 563 750 b 458 854 506 750 458 797 b 563 958 458 911 506 958 b 667 854 619 958 667 911 b 563 750 667 797 619 750 m 789 694 l 789 0 l 581 0 l 581 65 b 374 -19 535 13 467 -19 b 42 347 192 -19 42 140 b 374 714 42 554 192 714 b 581 629 467 714 535 682 l 581 694 m 415 178 b 581 347 511 178 581 243 b 415 517 581 451 511 517 b 250 347 319 517 250 451 b 415 178 250 243 319 178 "},"à":{"ha":865,"x_min":0,"x_max":0,"o":"m 356 778 l 194 972 l 444 972 l 556 778 m 789 694 l 789 0 l 581 0 l 581 65 b 374 -19 535 13 467 -19 b 42 347 192 -19 42 140 b 374 714 42 554 192 714 b 581 629 467 714 535 682 l 581 694 m 415 178 b 581 347 511 178 581 243 b 415 517 581 451 511 517 b 250 347 319 517 250 451 b 415 178 250 243 319 178 "},"ā":{"ha":865,"x_min":0,"x_max":0,"o":"m 639 776 l 222 776 l 222 943 l 639 943 m 789 694 l 789 0 l 581 0 l 581 65 b 374 -19 535 13 467 -19 b 42 347 192 -19 42 140 b 374 714 42 554 192 714 b 581 629 467 714 535 682 l 581 694 m 415 178 b 581 347 511 178 581 243 b 415 517 581 451 511 517 b 250 347 319 517 250 451 b 415 178 250 243 319 178 "},"ą":{"ha":865,"x_min":0,"x_max":0,"o":"m 789 0 b 726 -118 749 -44 726 -89 b 757 -154 725 -140 736 -154 b 789 -149 765 -156 776 -153 l 789 -274 b 667 -297 751 -289 717 -297 b 528 -171 590 -297 528 -258 b 617 0 528 -118 564 -56 l 581 0 l 581 65 b 374 -19 535 13 467 -19 b 42 347 192 -19 42 140 b 374 714 42 554 192 714 b 581 629 467 714 535 682 l 581 694 l 789 694 l 789 0 m 415 178 b 581 347 511 178 581 243 b 415 517 581 451 511 517 b 250 347 319 517 250 451 b 415 178 250 243 319 178 "},"å":{"ha":865,"x_min":0,"x_max":0,"o":"m 431 743 b 246 917 322 743 246 818 b 431 1090 246 1015 322 1090 b 615 917 542 1090 615 1015 b 431 743 615 818 542 743 m 431 964 b 382 917 399 964 382 943 b 431 869 382 890 399 869 b 481 917 464 869 481 890 b 431 964 481 943 464 964 m 789 694 l 789 0 l 581 0 l 581 65 b 374 -19 535 13 467 -19 b 42 347 192 -19 42 140 b 374 714 42 554 192 714 b 581 629 467 714 535 682 l 581 694 m 415 178 b 581 347 511 178 581 243 b 415 517 581 451 511 517 b 250 347 319 517 250 451 b 415 178 250 243 319 178 "},"ã":{"ha":865,"x_min":0,"x_max":0,"o":"m 407 801 b 347 768 360 831 347 824 l 181 768 b 453 953 181 1006 326 1031 b 513 986 500 924 513 931 l 679 986 b 407 801 679 749 533 724 m 789 694 l 789 0 l 581 0 l 581 65 b 374 -19 535 13 467 -19 b 42 347 192 -19 42 140 b 374 714 42 554 192 714 b 581 629 467 714 535 682 l 581 694 m 415 178 b 581 347 511 178 581 243 b 415 517 581 451 511 517 b 250 347 319 517 250 451 b 415 178 250 243 319 178 "},"æ":{"ha":1347,"x_min":0,"x_max":0,"o":"m 804 264 b 971 167 832 192 900 167 b 1104 219 1028 167 1076 189 l 1271 124 b 996 -19 1203 29 1128 -19 b 775 75 904 -19 829 15 l 775 0 l 581 0 l 581 65 b 374 -19 535 13 467 -19 b 42 347 192 -19 42 140 b 374 714 42 554 192 714 b 581 629 467 714 535 682 l 581 694 l 775 694 l 775 621 b 990 714 828 679 901 714 b 1306 347 1193 714 1306 557 b 1297 264 1306 318 1303 290 l 804 264 m 1099 422 b 954 529 1076 501 1015 529 b 800 422 876 529 822 492 m 415 178 b 581 347 511 178 581 243 b 415 517 581 451 511 517 b 250 347 319 517 250 451 b 415 178 250 243 319 178 "},"b":{"ha":865,"x_min":0,"x_max":0,"o":"m 492 714 b 824 347 674 714 824 554 b 492 -19 824 140 674 -19 b 285 65 399 -19 331 13 l 285 0 l 76 0 l 76 972 l 285 972 l 285 629 b 492 714 331 682 399 714 m 450 178 b 615 347 546 178 615 243 b 450 517 615 451 546 517 b 285 347 354 517 285 451 b 450 178 285 243 354 178 "},"c":{"ha":738,"x_min":0,"x_max":0,"o":"m 410 -19 b 42 347 199 -19 42 140 b 410 714 42 554 199 714 b 724 536 544 714 664 643 l 542 431 b 407 508 518 479 468 508 b 250 347 317 508 250 443 b 407 186 250 251 317 186 b 542 264 468 186 519 215 l 724 160 b 410 -19 664 51 546 -19 "},"ć":{"ha":738,"x_min":0,"x_max":0,"o":"m 488 778 l 649 972 l 399 972 l 288 778 m 410 -19 b 42 347 199 -19 42 140 b 410 714 42 554 199 714 b 724 536 544 714 664 643 l 542 431 b 407 508 518 479 468 508 b 250 347 317 508 250 443 b 407 186 250 251 317 186 b 542 264 468 186 519 215 l 724 160 b 410 -19 664 51 546 -19 "},"č":{"ha":738,"x_min":0,"x_max":0,"o":"m 156 972 l 357 972 l 406 896 l 454 972 l 656 972 l 508 764 l 303 764 m 407 186 b 542 264 468 186 519 215 l 724 160 b 410 -19 664 51 546 -19 b 42 347 199 -19 42 140 b 410 714 42 554 199 714 b 724 536 544 714 664 643 l 542 431 b 407 508 518 479 468 508 b 250 347 317 508 250 443 b 407 186 250 251 317 186 "},"ç":{"ha":738,"x_min":0,"x_max":0,"o":"m 407 186 b 542 264 468 186 519 215 l 724 160 b 503 -8 678 76 599 17 l 503 -64 b 590 -171 540 -74 590 -104 b 278 -300 590 -258 511 -314 l 278 -156 b 410 -136 368 -162 410 -154 b 336 -108 410 -119 381 -112 l 336 -12 b 42 347 163 19 42 165 b 410 714 42 554 199 714 b 724 536 544 714 664 643 l 542 431 b 407 508 518 479 468 508 b 250 347 317 508 250 443 b 407 186 250 251 317 186 "},"ċ":{"ha":738,"x_min":0,"x_max":0,"o":"m 413 757 b 294 875 349 757 294 811 b 413 993 294 939 349 993 b 531 875 476 993 531 939 b 413 757 531 811 476 757 m 410 -19 b 42 347 199 -19 42 140 b 410 714 42 554 199 714 b 724 536 544 714 664 643 l 542 431 b 407 508 518 479 468 508 b 250 347 317 508 250 443 b 407 186 250 251 317 186 b 542 264 468 186 519 215 l 724 160 b 410 -19 664 51 546 -19 "},"d":{"ha":865,"x_min":0,"x_max":0,"o":"m 789 972 l 789 0 l 581 0 l 581 65 b 374 -19 535 13 467 -19 b 42 347 192 -19 42 140 b 374 714 42 554 192 714 b 581 629 467 714 535 682 l 581 972 m 415 178 b 581 347 511 178 581 243 b 415 517 581 451 511 517 b 250 347 319 517 250 451 b 415 178 250 243 319 178 "},"ð":{"ha":786,"x_min":0,"x_max":0,"o":"m 681 514 b 744 319 718 463 744 396 b 393 -17 744 107 579 -17 b 42 319 207 -17 42 107 b 347 631 42 488 174 626 l 276 726 l 93 642 l 93 781 l 201 831 l 100 972 l 339 972 l 382 915 l 547 992 l 547 853 l 458 811 l 681 514 m 393 178 b 536 319 478 178 536 229 b 511 401 536 353 524 383 b 393 456 485 436 447 456 b 250 319 308 456 250 404 b 393 178 250 229 308 178 "},"ď":{"ha":1036,"x_min":0,"x_max":0,"o":"m 581 972 l 789 972 l 789 0 l 581 0 l 581 65 b 374 -19 535 13 467 -19 b 42 347 192 -19 42 140 b 374 714 42 554 192 714 b 581 629 467 714 535 682 m 1050 972 l 1008 681 l 842 681 l 856 972 m 415 178 b 581 347 511 178 581 243 b 415 517 581 451 511 517 b 250 347 319 517 250 451 b 415 178 250 243 319 178 "},"đ":{"ha":872,"x_min":0,"x_max":0,"o":"m 872 758 l 789 758 l 789 0 l 581 0 l 581 65 b 374 -19 535 13 467 -19 b 42 347 192 -19 42 140 b 374 714 42 554 192 714 b 581 629 467 714 535 682 l 581 758 l 386 758 l 386 889 l 581 889 l 581 972 l 789 972 l 789 889 l 872 889 m 415 178 b 581 347 511 178 581 243 b 415 517 581 451 511 517 b 250 347 319 517 250 451 b 415 178 250 243 319 178 "},"e":{"ha":806,"x_min":0,"x_max":0,"o":"m 263 264 b 429 167 289 192 353 167 b 563 219 486 167 535 189 l 729 124 b 426 -19 661 29 558 -19 b 42 347 189 -19 42 140 b 411 714 42 554 192 714 b 764 347 614 714 764 557 b 756 264 764 318 761 290 l 263 264 m 557 419 b 410 529 535 500 472 529 b 258 419 331 529 278 490 "},"é":{"ha":806,"x_min":0,"x_max":0,"o":"m 478 785 l 278 785 l 389 979 l 639 979 m 263 264 b 429 167 289 192 353 167 b 563 219 486 167 535 189 l 729 124 b 426 -19 661 29 558 -19 b 42 347 189 -19 42 140 b 411 714 42 554 192 714 b 764 347 614 714 764 557 b 756 264 764 318 761 290 l 263 264 m 557 419 b 410 529 535 500 472 529 b 258 419 331 529 278 490 "},"ě":{"ha":806,"x_min":0,"x_max":0,"o":"m 146 979 l 347 979 l 396 903 l 444 979 l 646 979 l 499 771 l 293 771 m 263 264 b 429 167 289 192 353 167 b 563 219 486 167 535 189 l 729 124 b 426 -19 661 29 558 -19 b 42 347 189 -19 42 140 b 411 714 42 554 192 714 b 764 347 614 714 764 557 b 756 264 764 318 761 290 l 263 264 m 557 419 b 410 529 535 500 472 529 b 258 419 331 529 278 490 "},"ê":{"ha":806,"x_min":0,"x_max":0,"o":"m 347 771 l 146 771 l 293 979 l 499 979 l 646 771 l 444 771 l 396 847 m 263 264 b 429 167 289 192 353 167 b 563 219 486 167 535 189 l 729 124 b 426 -19 661 29 558 -19 b 42 347 189 -19 42 140 b 411 714 42 554 192 714 b 764 347 614 714 764 557 b 756 264 764 318 761 290 l 263 264 m 557 419 b 410 529 535 500 472 529 b 258 419 331 529 278 490 "},"ë":{"ha":806,"x_min":0,"x_max":0,"o":"m 271 757 b 167 861 214 757 167 804 b 271 965 167 918 214 965 b 375 861 328 965 375 918 b 271 757 375 804 328 757 m 535 757 b 431 861 478 757 431 804 b 535 965 431 918 478 965 b 639 861 592 965 639 918 b 535 757 639 804 592 757 m 263 264 b 429 167 289 192 353 167 b 563 219 486 167 535 189 l 729 124 b 426 -19 661 29 558 -19 b 42 347 189 -19 42 140 b 411 714 42 554 192 714 b 764 347 614 714 764 557 b 756 264 764 318 761 290 l 263 264 m 557 419 b 410 529 535 500 472 529 b 258 419 331 529 278 490 "},"ė":{"ha":806,"x_min":0,"x_max":0,"o":"m 403 764 b 285 882 339 764 285 818 b 403 1000 285 946 339 1000 b 521 882 467 1000 521 946 b 403 764 521 818 467 764 m 263 264 b 429 167 289 192 353 167 b 563 219 486 167 535 189 l 729 124 b 426 -19 661 29 558 -19 b 42 347 189 -19 42 140 b 411 714 42 554 192 714 b 764 347 614 714 764 557 b 756 264 764 318 761 290 l 263 264 m 557 419 b 410 529 535 500 472 529 b 258 419 331 529 278 490 "},"è":{"ha":806,"x_min":0,"x_max":0,"o":"m 328 785 l 167 979 l 417 979 l 528 785 m 263 264 b 429 167 289 192 353 167 b 563 219 486 167 535 189 l 729 124 b 426 -19 661 29 558 -19 b 42 347 189 -19 42 140 b 411 714 42 554 192 714 b 764 347 614 714 764 557 b 756 264 764 318 761 290 l 263 264 m 557 419 b 410 529 535 500 472 529 b 258 419 331 529 278 490 "},"ē":{"ha":806,"x_min":0,"x_max":0,"o":"m 611 783 l 194 783 l 194 950 l 611 950 m 263 264 b 429 167 289 192 353 167 b 563 219 486 167 535 189 l 729 124 b 426 -19 661 29 558 -19 b 42 347 189 -19 42 140 b 411 714 42 554 192 714 b 764 347 614 714 764 557 b 756 264 764 318 761 290 l 263 264 m 557 419 b 410 529 535 500 472 529 b 258 419 331 529 278 490 "},"ę":{"ha":806,"x_min":0,"x_max":0,"o":"m 263 264 b 429 167 289 192 353 167 b 563 219 486 167 535 189 l 729 124 b 679 68 714 103 697 85 b 576 -118 589 -29 576 -94 b 607 -154 576 -140 586 -154 b 639 -149 615 -156 626 -153 l 639 -274 b 517 -297 601 -289 567 -297 b 378 -171 440 -297 378 -258 b 471 -18 378 -124 407 -68 b 426 -19 457 -19 442 -19 b 42 347 189 -19 42 140 b 411 714 42 554 192 714 b 764 347 614 714 764 557 b 756 264 764 318 761 290 l 263 264 m 557 419 b 410 529 535 500 472 529 b 258 419 331 529 278 490 "},"f":{"ha":458,"x_min":0,"x_max":0,"o":"m 458 792 b 329 694 381 799 329 775 l 458 694 l 458 494 l 329 494 l 329 0 l 121 0 l 121 494 l 28 494 l 28 694 l 121 694 b 458 992 121 889 228 1006 l 458 792 "},"g":{"ha":865,"x_min":0,"x_max":0,"o":"m 789 694 l 789 35 b 422 -297 789 -199 607 -297 b 93 -129 278 -297 157 -243 l 271 -26 b 429 -114 297 -75 338 -114 b 586 35 526 -114 586 -64 l 586 99 b 383 8 540 42 474 8 b 42 361 186 8 42 169 b 383 714 42 553 186 714 b 586 624 474 714 540 681 l 586 694 m 418 200 b 586 361 517 200 586 265 b 418 522 586 457 517 522 b 250 361 319 522 250 457 b 418 200 250 265 319 200 "},"ğ":{"ha":865,"x_min":0,"x_max":0,"o":"m 407 767 b 164 975 250 767 164 843 l 347 975 b 407 911 347 935 368 911 b 467 975 446 911 467 935 l 650 975 b 407 767 650 843 564 767 m 789 694 l 789 35 b 422 -297 789 -199 607 -297 b 93 -129 278 -297 157 -243 l 271 -26 b 429 -114 297 -75 338 -114 b 586 35 526 -114 586 -64 l 586 99 b 383 8 540 42 474 8 b 42 361 186 8 42 169 b 383 714 42 553 186 714 b 586 624 474 714 540 681 l 586 694 m 418 200 b 586 361 517 200 586 265 b 418 522 586 457 517 522 b 250 361 319 522 250 457 b 418 200 250 265 319 200 "},"ģ":{"ha":865,"x_min":0,"x_max":0,"o":"m 494 806 l 300 806 l 342 1097 l 508 1097 m 789 694 l 789 35 b 422 -297 789 -199 607 -297 b 93 -129 278 -297 157 -243 l 271 -26 b 429 -114 297 -75 338 -114 b 586 35 526 -114 586 -64 l 586 99 b 383 8 540 42 474 8 b 42 361 186 8 42 169 b 383 714 42 553 186 714 b 586 624 474 714 540 681 l 586 694 m 418 200 b 586 361 517 200 586 265 b 418 522 586 457 517 522 b 250 361 319 522 250 457 b 418 200 250 265 319 200 "},"ġ":{"ha":865,"x_min":0,"x_max":0,"o":"m 407 771 b 289 889 343 771 289 825 b 407 1007 289 953 343 1007 b 525 889 471 1007 525 953 b 407 771 525 825 471 771 m 789 694 l 789 35 b 422 -297 789 -199 607 -297 b 93 -129 278 -297 157 -243 l 271 -26 b 429 -114 297 -75 338 -114 b 586 35 526 -114 586 -64 l 586 99 b 383 8 540 42 474 8 b 42 361 186 8 42 169 b 383 714 42 553 186 714 b 586 624 474 714 540 681 l 586 694 m 418 200 b 586 361 517 200 586 265 b 418 522 586 457 517 522 b 250 361 319 522 250 457 b 418 200 250 265 319 200 "},"h":{"ha":810,"x_min":0,"x_max":0,"o":"m 483 714 b 743 426 624 714 743 614 l 743 0 l 535 0 l 535 396 b 414 522 535 482 481 522 b 285 379 338 522 285 478 l 285 0 l 76 0 l 76 972 l 285 972 l 285 629 b 483 714 322 681 392 714 "},"ħ":{"ha":817,"x_min":0,"x_max":0,"o":"m 490 714 b 750 426 631 714 750 614 l 750 0 l 542 0 l 542 396 b 421 522 542 482 488 522 b 292 379 344 522 292 478 l 292 0 l 83 0 l 83 758 l 0 758 l 0 889 l 83 889 l 83 972 l 292 972 l 292 889 l 486 889 l 486 758 l 292 758 l 292 629 b 490 714 329 681 399 714 "},"i":{"ha":361,"x_min":0,"x_max":0,"o":"m 181 756 b 56 881 113 756 56 813 b 181 1006 56 949 113 1006 b 306 881 249 1006 306 949 b 181 756 306 813 249 756 m 76 694 l 285 694 l 285 0 l 76 0 "},"ı":{"ha":361,"x_min":0,"x_max":0,"o":"m 76 694 l 285 694 l 285 0 l 76 0 "},"í":{"ha":361,"x_min":0,"x_max":0,"o":"m 276 764 l 368 972 l 132 972 l 76 764 m 76 694 l 285 694 l 285 0 l 76 0 "},"î":{"ha":361,"x_min":0,"x_max":0,"o":"m 146 764 l -56 764 l 78 972 l 283 972 l 417 764 l 215 764 l 181 825 m 76 694 l 285 694 l 285 0 l 76 0 "},"ï":{"ha":361,"x_min":0,"x_max":0,"o":"m 56 757 b -49 861 -1 757 -49 804 b 56 965 -49 918 -1 965 b 160 861 113 965 160 918 b 56 757 160 804 113 757 m 306 757 b 201 861 249 757 201 804 b 306 965 201 918 249 965 b 410 861 363 965 410 918 b 306 757 410 804 363 757 m 76 694 l 285 694 l 285 0 l 76 0 "},"ì":{"ha":361,"x_min":0,"x_max":0,"o":"m 222 972 l -14 972 l 78 764 l 278 764 m 76 0 l 76 694 l 285 694 l 285 0 "},"ī":{"ha":361,"x_min":0,"x_max":0,"o":"m 14 957 l 347 957 l 347 776 l 14 776 m 76 694 l 285 694 l 285 0 l 76 0 "},"į":{"ha":361,"x_min":0,"x_max":0,"o":"m 181 756 b 56 881 113 756 56 813 b 181 1006 56 949 113 1006 b 306 881 249 1006 306 949 b 181 756 306 813 249 756 m 271 -154 b 303 -149 279 -156 290 -153 l 303 -274 b 181 -297 265 -289 231 -297 b 42 -171 104 -297 42 -258 b 106 0 42 -118 67 -56 l 76 0 l 76 694 l 285 694 l 285 0 b 240 -118 258 -43 240 -89 b 271 -154 239 -140 250 -154 "},"j":{"ha":382,"x_min":0,"x_max":0,"o":"m 201 756 b 76 881 133 756 76 813 b 201 1006 76 949 133 1006 b 326 881 269 1006 326 949 b 201 756 326 813 269 756 m 97 694 l 306 694 l 306 0 b -14 -297 306 -217 206 -310 l -14 -97 b 97 0 63 -101 97 -74 "},"k":{"ha":743,"x_min":0,"x_max":0,"o":"m 507 0 l 285 307 l 285 0 l 76 0 l 76 972 l 285 972 l 285 390 l 493 694 l 736 694 l 483 347 l 743 0 "},"ķ":{"ha":743,"x_min":0,"x_max":0,"o":"m 743 0 l 507 0 l 285 307 l 285 0 l 76 0 l 76 972 l 285 972 l 285 390 l 493 694 l 736 694 l 483 347 m 310 -83 l 504 -83 l 463 -375 l 296 -375 "},"l":{"ha":361,"x_min":0,"x_max":0,"o":"m 76 1014 l 285 1014 l 285 0 l 76 0 "},"ĺ":{"ha":361,"x_min":0,"x_max":0,"o":"m 272 1056 l 433 1250 l 183 1250 l 72 1056 m 76 1014 l 285 1014 l 285 0 l 76 0 "},"ľ":{"ha":529,"x_min":0,"x_max":0,"o":"m 76 1014 l 285 1014 l 285 0 l 76 0 m 543 1014 l 349 1014 l 335 722 l 501 722 "},"ļ":{"ha":361,"x_min":0,"x_max":0,"o":"m 76 1014 l 285 1014 l 285 0 l 76 0 m 282 -83 l 88 -83 l 74 -375 l 240 -375 "},"ł":{"ha":375,"x_min":0,"x_max":0,"o":"m 361 496 l 292 449 l 292 0 l 83 0 l 83 306 l 14 258 l 14 457 l 83 504 l 83 1014 l 292 1014 l 292 647 l 361 694 "},"m":{"ha":1185,"x_min":0,"x_max":0,"o":"m 854 714 b 1118 426 1014 714 1118 600 l 1118 0 l 910 0 l 910 408 b 810 522 910 478 876 522 b 701 392 740 522 701 474 l 701 0 l 493 0 l 493 408 b 393 522 493 478 460 522 b 285 392 324 522 285 474 l 285 0 l 76 0 l 76 694 l 285 694 l 285 631 b 471 714 317 678 378 714 b 653 622 553 714 614 681 b 854 714 692 678 756 714 "},"n":{"ha":810,"x_min":0,"x_max":0,"o":"m 483 714 b 743 426 624 714 743 614 l 743 0 l 535 0 l 535 396 b 414 522 535 482 481 522 b 285 379 338 522 285 478 l 285 0 l 76 0 l 76 694 l 285 694 l 285 629 b 483 714 322 681 392 714 "},"ń":{"ha":810,"x_min":0,"x_max":0,"o":"m 493 792 l 293 792 l 404 986 l 654 986 m 483 714 b 743 426 624 714 743 614 l 743 0 l 535 0 l 535 396 b 414 522 535 482 481 522 b 285 379 338 522 285 478 l 285 0 l 76 0 l 76 694 l 285 694 l 285 629 b 483 714 322 681 392 714 "},"ň":{"ha":810,"x_min":0,"x_max":0,"o":"m 161 986 l 363 986 l 411 910 l 460 986 l 661 986 l 514 778 l 308 778 m 483 714 b 743 426 624 714 743 614 l 743 0 l 535 0 l 535 396 b 414 522 535 482 481 522 b 285 379 338 522 285 478 l 285 0 l 76 0 l 76 694 l 285 694 l 285 629 b 483 714 322 681 392 714 "},"ņ":{"ha":810,"x_min":0,"x_max":0,"o":"m 483 714 b 743 426 624 714 743 614 l 743 0 l 535 0 l 535 396 b 414 522 535 482 481 522 b 285 379 338 522 285 478 l 285 0 l 76 0 l 76 694 l 285 694 l 285 629 b 483 714 322 681 392 714 m 321 -83 l 515 -83 l 474 -375 l 307 -375 "},"ŋ":{"ha":810,"x_min":0,"x_max":0,"o":"m 483 714 b 743 426 624 714 743 614 l 743 0 b 438 -297 743 -194 650 -311 l 438 -97 b 535 0 497 -104 535 -81 l 535 396 b 414 522 535 482 481 522 b 285 379 338 522 285 478 l 285 0 l 76 0 l 76 694 l 285 694 l 285 629 b 483 714 322 681 392 714 "},"ñ":{"ha":810,"x_min":0,"x_max":0,"o":"m 394 815 b 335 782 347 844 335 838 l 168 782 b 440 967 168 1019 314 1044 b 500 1000 488 938 500 944 l 667 1000 b 394 815 667 763 521 738 m 483 714 b 743 426 624 714 743 614 l 743 0 l 535 0 l 535 396 b 414 522 535 482 481 522 b 285 379 338 522 285 478 l 285 0 l 76 0 l 76 694 l 285 694 l 285 629 b 483 714 322 681 392 714 "},"o":{"ha":819,"x_min":0,"x_max":0,"o":"m 410 -19 b 42 347 206 -19 42 140 b 410 714 42 554 206 714 b 778 347 614 714 778 554 b 410 -19 778 140 614 -19 m 410 183 b 569 347 500 183 569 249 b 410 511 569 446 500 511 b 250 347 319 511 250 446 b 410 183 250 249 319 183 "},"ó":{"ha":819,"x_min":0,"x_max":0,"o":"m 485 792 l 646 986 l 396 986 l 285 792 m 410 -19 b 42 347 206 -19 42 140 b 410 714 42 554 206 714 b 778 347 614 714 778 554 b 410 -19 778 140 614 -19 m 410 183 b 569 347 500 183 569 249 b 410 511 569 446 500 511 b 250 347 319 511 250 446 b 410 183 250 249 319 183 "},"ô":{"ha":819,"x_min":0,"x_max":0,"o":"m 354 778 l 153 778 l 300 986 l 506 986 l 653 778 l 451 778 l 403 854 m 410 714 b 778 347 614 714 778 554 b 410 -19 778 140 614 -19 b 42 347 206 -19 42 140 b 410 714 42 554 206 714 m 410 183 b 569 347 500 183 569 249 b 410 511 569 446 500 511 b 250 347 319 511 250 446 b 410 183 250 249 319 183 "},"ö":{"ha":819,"x_min":0,"x_max":0,"o":"m 278 764 b 174 868 221 764 174 811 b 278 972 174 925 221 972 b 382 868 335 972 382 925 b 278 764 382 811 335 764 m 542 764 b 438 868 485 764 438 811 b 542 972 438 925 485 972 b 646 868 599 972 646 925 b 542 764 646 811 599 764 m 410 -19 b 42 347 206 -19 42 140 b 410 714 42 554 206 714 b 778 347 614 714 778 554 b 410 -19 778 140 614 -19 m 410 183 b 569 347 500 183 569 249 b 410 511 569 446 500 511 b 250 347 319 511 250 446 b 410 183 250 249 319 183 "},"ò":{"ha":819,"x_min":0,"x_max":0,"o":"m 424 986 l 174 986 l 335 792 l 535 792 m 410 -19 b 42 347 206 -19 42 140 b 410 714 42 554 206 714 b 778 347 614 714 778 554 b 410 -19 778 140 614 -19 m 410 183 b 569 347 500 183 569 249 b 410 511 569 446 500 511 b 250 347 319 511 250 446 b 410 183 250 249 319 183 "},"ő":{"ha":819,"x_min":0,"x_max":0,"o":"m 351 778 l 471 972 l 257 972 l 146 778 m 606 778 l 739 972 l 525 972 l 400 778 m 410 -19 b 42 347 206 -19 42 140 b 410 714 42 554 206 714 b 778 347 614 714 778 554 b 410 -19 778 140 614 -19 m 410 183 b 569 347 500 183 569 249 b 410 511 569 446 500 511 b 250 347 319 511 250 446 b 410 183 250 249 319 183 "},"ō":{"ha":819,"x_min":0,"x_max":0,"o":"m 201 957 l 618 957 l 618 790 l 201 790 m 410 -19 b 42 347 206 -19 42 140 b 410 714 42 554 206 714 b 778 347 614 714 778 554 b 410 -19 778 140 614 -19 m 410 183 b 569 347 500 183 569 249 b 410 511 569 446 500 511 b 250 347 319 511 250 446 b 410 183 250 249 319 183 "},"ø":{"ha":819,"x_min":0,"x_max":0,"o":"m 681 597 b 778 347 740 533 778 446 b 410 -19 778 140 614 -19 b 214 35 338 -19 271 0 l 174 -14 l 89 33 l 140 96 b 42 347 79 161 42 249 b 410 714 42 554 206 714 b 606 658 482 714 550 694 l 647 708 l 732 660 l 681 597 m 250 347 b 274 257 250 313 258 282 l 474 499 b 410 511 454 507 433 511 b 250 347 319 511 250 446 m 410 183 b 569 347 500 183 569 249 b 547 436 569 382 561 411 l 347 194 b 410 183 365 188 388 183 "},"õ":{"ha":819,"x_min":0,"x_max":0,"o":"m 160 782 b 432 967 160 1019 306 1044 b 492 1000 479 938 492 944 l 658 1000 b 386 815 658 763 513 738 b 326 782 339 844 326 838 l 160 782 m 410 -19 b 42 347 206 -19 42 140 b 410 714 42 554 206 714 b 778 347 614 714 778 554 b 410 -19 778 140 614 -19 m 410 183 b 569 347 500 183 569 249 b 410 511 569 446 500 511 b 250 347 319 511 250 446 b 410 183 250 249 319 183 "},"œ":{"ha":1333,"x_min":0,"x_max":0,"o":"m 790 264 b 950 167 819 188 889 167 b 1090 219 1014 167 1063 189 l 1257 124 b 954 -19 1189 29 1086 -19 b 672 121 824 -19 729 35 b 403 -19 615 35 522 -19 b 42 347 199 -19 42 140 b 403 714 42 554 199 714 b 672 574 521 714 615 660 b 949 714 728 660 821 714 b 1292 347 1151 714 1292 557 b 1283 264 1292 318 1289 290 l 790 264 m 1085 422 b 940 529 1063 501 1001 529 b 786 422 863 529 808 492 m 410 183 b 569 347 500 183 569 249 b 410 511 569 446 500 511 b 250 347 319 511 250 446 b 410 183 250 249 319 183 "},"p":{"ha":865,"x_min":0,"x_max":0,"o":"m 492 714 b 824 347 674 714 824 554 b 492 -19 824 140 674 -19 b 285 65 399 -19 331 13 l 285 -278 l 76 -278 l 76 694 l 285 694 l 285 629 b 492 714 331 682 399 714 m 450 178 b 615 347 546 178 615 243 b 450 517 615 451 546 517 b 285 347 354 517 285 451 b 450 178 285 243 354 178 "},"þ":{"ha":865,"x_min":0,"x_max":0,"o":"m 492 714 b 824 347 674 714 824 554 b 492 -19 824 140 674 -19 b 285 65 399 -19 331 13 l 285 -278 l 76 -278 l 76 972 l 285 972 l 285 629 b 492 714 331 682 399 714 m 450 178 b 615 347 546 178 615 243 b 450 517 615 451 546 517 b 285 347 354 517 285 451 b 450 178 285 243 354 178 "},"q":{"ha":865,"x_min":0,"x_max":0,"o":"m 789 694 l 789 -278 l 581 -278 l 581 65 b 374 -19 535 13 467 -19 b 42 347 192 -19 42 140 b 374 714 42 554 192 714 b 581 629 467 714 535 682 l 581 694 m 415 178 b 581 347 511 178 581 243 b 415 517 581 451 511 517 b 250 347 319 517 250 451 b 415 178 250 243 319 178 "},"r":{"ha":514,"x_min":0,"x_max":0,"o":"m 285 571 b 493 708 313 664 406 708 l 493 472 b 285 314 407 486 285 451 l 285 0 l 76 0 l 76 694 l 285 694 l 285 571 "},"ŕ":{"ha":514,"x_min":0,"x_max":0,"o":"m 349 778 l 149 778 l 260 972 l 510 972 m 285 571 b 493 708 313 664 406 708 l 493 472 b 285 314 407 486 285 451 l 285 0 l 76 0 l 76 694 l 285 694 l 285 571 "},"ř":{"ha":514,"x_min":0,"x_max":0,"o":"m 17 972 l 218 972 l 267 896 l 315 972 l 517 972 l 369 764 l 164 764 m 285 571 b 493 708 313 664 406 708 l 493 472 b 285 314 407 486 285 451 l 285 0 l 76 0 l 76 694 l 285 694 l 285 571 "},"ŗ":{"ha":514,"x_min":0,"x_max":0,"o":"m 285 571 b 493 708 313 664 406 708 l 493 472 b 285 314 407 486 285 451 l 285 0 l 76 0 l 76 694 l 285 694 l 285 571 m 89 -83 l 283 -83 l 242 -375 l 75 -375 "},"s":{"ha":650,"x_min":0,"x_max":0,"o":"m 274 492 b 615 208 274 413 615 465 b 326 -19 615 49 476 -19 b 28 146 188 -19 82 33 l 208 249 b 326 167 226 196 265 167 b 401 210 376 167 401 182 b 60 486 401 286 60 246 b 332 714 60 638 188 714 b 603 565 444 714 544 664 l 425 469 b 332 531 406 506 378 531 b 274 492 296 531 274 517 "},"ś":{"ha":650,"x_min":0,"x_max":0,"o":"m 397 792 l 197 792 l 308 986 l 558 986 m 274 492 b 615 208 274 413 615 465 b 326 -19 615 49 476 -19 b 28 146 188 -19 82 33 l 208 249 b 326 167 226 196 265 167 b 401 210 376 167 401 182 b 60 486 401 286 60 246 b 332 714 60 638 188 714 b 603 565 444 714 544 664 l 425 469 b 332 531 406 506 378 531 b 274 492 296 531 274 517 "},"š":{"ha":650,"x_min":0,"x_max":0,"o":"m 65 986 l 267 986 l 315 910 l 364 986 l 565 986 l 418 778 l 213 778 m 274 492 b 615 208 274 413 615 465 b 326 -19 615 49 476 -19 b 28 146 188 -19 82 33 l 208 249 b 326 167 226 196 265 167 b 401 210 376 167 401 182 b 60 486 401 286 60 246 b 332 714 60 638 188 714 b 603 565 444 714 544 664 l 425 469 b 332 531 406 506 378 531 b 274 492 296 531 274 517 "},"ş":{"ha":650,"x_min":0,"x_max":0,"o":"m 615 208 b 429 -8 615 86 535 18 l 429 -64 b 517 -171 467 -74 517 -104 b 204 -300 517 -258 438 -314 l 204 -156 b 336 -136 294 -162 336 -154 b 263 -108 336 -119 307 -112 l 263 -15 b 28 146 156 -1 74 51 l 208 249 b 326 167 226 196 265 167 b 401 210 376 167 401 182 b 60 486 401 286 60 246 b 332 714 60 638 188 714 b 603 565 444 714 544 664 l 425 469 b 332 531 406 506 378 531 b 274 492 296 531 274 517 b 615 208 274 413 615 465 "},"ș":{"ha":650,"x_min":0,"x_max":0,"o":"m 274 492 b 615 208 274 413 615 465 b 326 -19 615 49 476 -19 b 28 146 188 -19 82 33 l 208 249 b 326 167 226 196 265 167 b 401 210 376 167 401 182 b 60 486 401 286 60 246 b 332 714 60 638 188 714 b 603 565 444 714 544 664 l 425 469 b 332 531 406 506 378 531 b 274 492 296 531 274 517 m 250 -83 l 444 -83 l 403 -375 l 236 -375 "},"ß":{"ha":756,"x_min":0,"x_max":0,"o":"m 383 174 b 526 244 500 161 526 197 b 374 540 526 324 374 453 b 449 728 374 613 449 651 b 374 803 449 765 424 803 b 285 704 321 803 285 771 l 285 0 l 76 0 l 76 701 b 383 992 76 876 193 992 b 657 765 556 992 657 885 b 588 554 657 646 588 613 b 735 203 588 475 735 365 b 383 -10 735 75 663 -37 "},"t":{"ha":539,"x_min":0,"x_max":0,"o":"m 340 494 l 340 249 b 483 189 340 189 392 183 l 483 0 b 132 249 211 -28 132 54 l 132 494 l 21 494 l 21 694 l 132 694 l 132 826 l 340 889 l 340 694 l 483 694 l 483 494 "},"ŧ":{"ha":539,"x_min":0,"x_max":0,"o":"m 340 494 l 340 428 l 444 428 l 444 261 l 340 261 l 340 249 b 483 189 340 189 392 183 l 483 0 b 132 249 211 -28 132 54 l 132 261 l 56 261 l 56 428 l 132 428 l 132 494 l 21 494 l 21 694 l 132 694 l 132 826 l 340 889 l 340 694 l 483 694 l 483 494 "},"ť":{"ha":578,"x_min":0,"x_max":0,"o":"m 606 1014 l 564 750 l 397 750 l 411 1014 m 340 694 l 483 694 l 483 494 l 340 494 l 340 249 b 483 189 340 189 392 183 l 483 0 b 132 249 211 -28 132 54 l 132 494 l 21 494 l 21 694 l 132 694 l 132 826 l 340 889 "},"ţ":{"ha":539,"x_min":0,"x_max":0,"o":"m 340 494 l 340 249 b 483 189 340 189 392 183 l 483 0 b 132 249 211 -28 132 54 l 132 494 l 21 494 l 21 694 l 132 694 l 132 826 l 340 889 l 340 694 l 483 694 l 483 494 m 225 -83 l 419 -83 l 378 -375 l 211 -375 "},"ț":{"ha":539,"x_min":0,"x_max":0,"o":"m 340 494 l 340 249 b 483 189 340 189 392 183 l 483 0 b 132 249 211 -28 132 54 l 132 494 l 21 494 l 21 694 l 132 694 l 132 826 l 340 889 l 340 694 l 483 694 l 483 494 m 225 -83 l 419 -83 l 378 -375 l 211 -375 "},"u":{"ha":810,"x_min":0,"x_max":0,"o":"m 733 694 l 733 0 l 525 0 l 525 65 b 326 -19 488 14 418 -19 b 67 268 186 -19 67 81 l 67 694 l 275 694 l 275 299 b 396 172 275 213 329 172 b 525 315 472 172 525 217 l 525 694 "},"ú":{"ha":810,"x_min":0,"x_max":0,"o":"m 475 778 l 275 778 l 386 972 l 636 972 m 733 694 l 733 0 l 525 0 l 525 65 b 326 -19 488 14 418 -19 b 67 268 186 -19 67 81 l 67 694 l 275 694 l 275 299 b 396 172 275 213 329 172 b 525 315 472 172 525 217 l 525 694 "},"û":{"ha":810,"x_min":0,"x_max":0,"o":"m 344 764 l 143 764 l 290 972 l 496 972 l 643 764 l 442 764 l 393 840 m 733 694 l 733 0 l 525 0 l 525 65 b 326 -19 488 14 418 -19 b 67 268 186 -19 67 81 l 67 694 l 275 694 l 275 299 b 396 172 275 213 329 172 b 525 315 472 172 525 217 l 525 694 "},"ü":{"ha":810,"x_min":0,"x_max":0,"o":"m 268 750 b 164 854 211 750 164 797 b 268 958 164 911 211 958 b 372 854 325 958 372 911 b 268 750 372 797 325 750 m 532 750 b 428 854 475 750 428 797 b 532 958 428 911 475 958 b 636 854 589 958 636 911 b 532 750 636 797 589 750 m 733 694 l 733 0 l 525 0 l 525 65 b 326 -19 488 14 418 -19 b 67 268 186 -19 67 81 l 67 694 l 275 694 l 275 299 b 396 172 275 213 329 172 b 525 315 472 172 525 217 l 525 694 "},"ù":{"ha":810,"x_min":0,"x_max":0,"o":"m 325 778 l 164 972 l 414 972 l 525 778 m 733 694 l 733 0 l 525 0 l 525 65 b 326 -19 488 14 418 -19 b 67 268 186 -19 67 81 l 67 694 l 275 694 l 275 299 b 396 172 275 213 329 172 b 525 315 472 172 525 217 l 525 694 "},"ű":{"ha":810,"x_min":0,"x_max":0,"o":"m 342 764 l 136 764 l 247 958 l 461 958 m 390 764 l 515 958 l 729 958 l 596 764 m 733 694 l 733 0 l 525 0 l 525 65 b 326 -19 488 14 418 -19 b 67 268 186 -19 67 81 l 67 694 l 275 694 l 275 299 b 396 172 275 213 329 172 b 525 315 472 172 525 217 l 525 694 "},"ū":{"ha":810,"x_min":0,"x_max":0,"o":"m 608 776 l 192 776 l 192 943 l 608 943 m 733 694 l 733 0 l 525 0 l 525 65 b 326 -19 488 14 418 -19 b 67 268 186 -19 67 81 l 67 694 l 275 694 l 275 299 b 396 172 275 213 329 172 b 525 315 472 172 525 217 l 525 694 "},"ų":{"ha":810,"x_min":0,"x_max":0,"o":"m 733 0 b 671 -118 693 -44 671 -89 b 701 -154 669 -140 681 -154 b 733 -149 710 -156 721 -153 l 733 -274 b 611 -297 696 -289 661 -297 b 472 -171 535 -297 472 -258 b 561 0 472 -118 508 -56 l 525 0 l 525 65 b 326 -19 488 14 418 -19 b 67 268 186 -19 67 81 l 67 694 l 275 694 l 275 299 b 396 172 275 213 329 172 b 525 315 472 172 525 217 l 525 694 l 733 694 l 733 0 "},"ů":{"ha":810,"x_min":0,"x_max":0,"o":"m 400 743 b 215 917 292 743 215 818 b 400 1090 215 1015 292 1090 b 585 917 511 1090 585 1015 b 400 743 585 818 511 743 m 400 964 b 351 917 368 964 351 943 b 400 869 351 890 368 869 b 450 917 433 869 450 890 b 400 964 450 943 433 964 m 733 694 l 733 0 l 525 0 l 525 65 b 326 -19 488 14 418 -19 b 67 268 186 -19 67 81 l 67 694 l 275 694 l 275 299 b 396 172 275 213 329 172 b 525 315 472 172 525 217 l 525 694 "},"v":{"ha":750,"x_min":0,"x_max":0,"o":"m 750 694 l 493 0 l 257 0 l 0 694 l 231 694 l 375 254 l 519 694 "},"w":{"ha":1069,"x_min":0,"x_max":0,"o":"m 1063 694 l 840 0 l 646 0 l 535 371 l 424 0 l 229 0 l 7 694 l 229 694 l 329 322 l 438 694 l 632 694 l 740 322 l 840 694 "},"ẃ":{"ha":1069,"x_min":0,"x_max":0,"o":"m 610 778 l 410 778 l 521 972 l 771 972 m 1063 694 l 840 0 l 646 0 l 535 371 l 424 0 l 229 0 l 7 694 l 229 694 l 329 322 l 438 694 l 632 694 l 740 322 l 840 694 "},"ŵ":{"ha":1069,"x_min":0,"x_max":0,"o":"m 479 764 l 278 764 l 425 972 l 631 972 l 778 764 l 576 764 l 528 840 m 1063 694 l 840 0 l 646 0 l 535 371 l 424 0 l 229 0 l 7 694 l 229 694 l 329 322 l 438 694 l 632 694 l 740 322 l 840 694 "},"ẅ":{"ha":1069,"x_min":0,"x_max":0,"o":"m 403 750 b 299 854 346 750 299 797 b 403 958 299 911 346 958 b 507 854 460 958 507 911 b 403 750 507 797 460 750 m 667 750 b 563 854 610 750 563 797 b 667 958 563 911 610 958 b 771 854 724 958 771 911 b 667 750 771 797 724 750 m 1063 694 l 840 0 l 646 0 l 535 371 l 424 0 l 229 0 l 7 694 l 229 694 l 329 322 l 438 694 l 632 694 l 740 322 l 840 694 "},"ẁ":{"ha":1069,"x_min":0,"x_max":0,"o":"m 460 778 l 299 972 l 549 972 l 660 778 m 1063 694 l 840 0 l 646 0 l 535 371 l 424 0 l 229 0 l 7 694 l 229 694 l 329 322 l 438 694 l 632 694 l 740 322 l 840 694 "},"x":{"ha":736,"x_min":0,"x_max":0,"o":"m 497 0 l 368 183 l 239 0 l 0 0 l 249 353 l 8 694 l 247 694 l 368 522 l 489 694 l 728 694 l 488 353 l 736 0 "},"y":{"ha":736,"x_min":0,"x_max":0,"o":"m 736 694 l 499 21 b 103 -278 421 -200 297 -287 l 103 -83 b 276 32 200 -83 246 -53 l 0 694 l 229 694 l 383 269 l 514 694 "},"ý":{"ha":736,"x_min":0,"x_max":0,"o":"m 444 778 l 244 778 l 356 972 l 606 972 m 736 694 l 499 21 b 103 -278 421 -200 297 -287 l 103 -83 b 276 32 200 -83 246 -53 l 0 694 l 229 694 l 383 269 l 514 694 "},"ŷ":{"ha":736,"x_min":0,"x_max":0,"o":"m 314 764 l 113 764 l 260 972 l 465 972 l 613 764 l 411 764 l 363 840 m 736 694 l 499 21 b 103 -278 421 -200 297 -287 l 103 -83 b 276 32 200 -83 246 -53 l 0 694 l 229 694 l 383 269 l 514 694 "},"ÿ":{"ha":736,"x_min":0,"x_max":0,"o":"m 238 750 b 133 854 181 750 133 797 b 238 958 133 911 181 958 b 342 854 294 958 342 911 b 238 750 342 797 294 750 m 501 750 b 397 854 444 750 397 797 b 501 958 397 911 444 958 b 606 854 558 958 606 911 b 501 750 606 797 558 750 m 736 694 l 499 21 b 103 -278 421 -200 297 -287 l 103 -83 b 276 32 200 -83 246 -53 l 0 694 l 229 694 l 383 269 l 514 694 "},"ỳ":{"ha":736,"x_min":0,"x_max":0,"o":"m 294 778 l 133 972 l 383 972 l 494 778 m 736 694 l 499 21 b 103 -278 421 -200 297 -287 l 103 -83 b 276 32 200 -83 246 -53 l 0 694 l 229 694 l 383 269 l 514 694 "},"z":{"ha":660,"x_min":0,"x_max":0,"o":"m 611 194 l 611 0 l 56 0 l 56 139 l 318 500 l 69 500 l 69 694 l 597 694 l 597 556 l 335 194 "},"ź":{"ha":660,"x_min":0,"x_max":0,"o":"m 408 778 l 208 778 l 319 972 l 569 972 m 611 194 l 611 0 l 56 0 l 56 139 l 318 500 l 69 500 l 69 694 l 597 694 l 597 556 l 335 194 "},"ž":{"ha":660,"x_min":0,"x_max":0,"o":"m 76 972 l 278 972 l 326 896 l 375 972 l 576 972 l 429 764 l 224 764 m 611 194 l 611 0 l 56 0 l 56 139 l 318 500 l 69 500 l 69 694 l 597 694 l 597 556 l 335 194 "},"ż":{"ha":660,"x_min":0,"x_max":0,"o":"m 333 757 b 215 875 269 757 215 811 b 333 993 215 939 269 993 b 451 875 397 993 451 939 b 333 757 451 811 397 757 m 611 194 l 611 0 l 56 0 l 56 139 l 318 500 l 69 500 l 69 694 l 597 694 l 597 556 l 335 194 "},"ﬁ":{"ha":792,"x_min":0,"x_max":0,"o":"m 715 0 l 507 0 l 507 494 l 329 494 l 329 0 l 121 0 l 121 494 l 28 494 l 28 694 l 121 694 b 458 992 121 889 228 992 b 632 972 515 992 572 985 l 632 781 b 458 792 569 788 511 792 b 329 694 381 792 329 775 l 715 694 "},"ﬂ":{"ha":792,"x_min":0,"x_max":0,"o":"m 458 992 b 715 958 557 992 635 976 l 715 0 l 507 0 l 507 810 b 458 811 490 811 474 811 b 329 694 381 811 329 775 l 431 694 l 431 494 l 329 494 l 329 0 l 121 0 l 121 494 l 28 494 l 28 694 l 121 694 b 458 992 121 889 228 992 "},"А":{"ha":944,"x_min":0,"x_max":0,"o":"m 653 153 l 292 153 l 243 0 l 0 0 l 331 972 l 614 972 l 944 0 l 701 0 m 586 361 l 472 718 l 358 361 "},"Б":{"ha":813,"x_min":0,"x_max":0,"o":"m 458 611 b 792 306 657 611 792 490 b 458 0 792 121 657 0 l 83 0 l 83 972 l 708 972 l 708 758 l 306 758 l 306 611 l 458 611 m 458 208 b 569 306 519 208 569 235 b 458 403 569 376 519 403 l 306 403 l 306 208 l 458 208 "},"В":{"ha":833,"x_min":0,"x_max":0,"o":"m 686 504 b 806 285 758 458 806 383 b 492 0 806 113 665 0 l 83 0 l 83 972 l 464 972 b 771 694 633 972 771 863 b 686 504 771 614 739 550 m 306 764 l 306 592 l 464 592 b 549 678 514 592 549 628 b 464 764 549 728 515 764 m 492 208 b 583 301 547 208 583 247 b 492 394 583 356 547 394 l 306 394 l 306 208 l 492 208 "},"Г":{"ha":653,"x_min":0,"x_max":0,"o":"m 639 758 l 306 758 l 306 0 l 83 0 l 83 972 l 639 972 "},"Ѓ":{"ha":653,"x_min":0,"x_max":0,"o":"m 444 1054 l 244 1054 l 356 1249 l 606 1249 m 639 758 l 306 758 l 306 0 l 83 0 l 83 972 l 639 972 "},"Ґ":{"ha":653,"x_min":0,"x_max":0,"o":"m 639 1139 l 639 758 l 306 758 l 306 0 l 83 0 l 83 972 l 417 972 l 417 1139 "},"Д":{"ha":986,"x_min":0,"x_max":0,"o":"m 951 214 l 951 -186 l 729 -186 l 729 0 l 243 0 l 243 -186 l 21 -186 l 21 214 l 119 214 b 196 536 164 278 196 371 l 196 972 l 847 972 l 847 214 m 625 214 l 625 764 l 418 764 l 418 533 b 356 214 418 374 390 276 "},"Е":{"ha":736,"x_min":0,"x_max":0,"o":"m 694 214 l 694 0 l 83 0 l 83 972 l 688 972 l 688 758 l 306 758 l 306 597 l 653 597 l 653 386 l 306 386 l 306 214 "},"Ё":{"ha":736,"x_min":0,"x_max":0,"o":"m 254 1028 b 150 1132 197 1028 150 1075 b 254 1236 150 1189 197 1236 b 358 1132 311 1236 358 1189 b 254 1028 358 1075 311 1028 m 518 1028 b 414 1132 461 1028 414 1075 b 518 1236 414 1189 461 1236 b 622 1132 575 1236 622 1189 b 518 1028 622 1075 575 1028 m 694 214 l 694 0 l 83 0 l 83 972 l 688 972 l 688 758 l 306 758 l 306 597 l 653 597 l 653 386 l 306 386 l 306 214 "},"Ж":{"ha":1281,"x_min":0,"x_max":0,"o":"m 1021 0 l 751 431 l 751 0 l 529 0 l 529 431 l 260 0 l 14 0 l 328 494 l 28 972 l 274 972 l 529 544 l 529 972 l 751 972 l 751 544 l 1007 972 l 1253 972 l 953 494 l 1267 0 "},"З":{"ha":778,"x_min":0,"x_max":0,"o":"m 618 503 b 750 275 700 457 750 379 b 390 -19 750 93 594 -19 b 21 211 190 -19 78 74 l 213 321 b 390 189 238 246 286 189 b 528 292 483 189 528 228 b 389 394 528 356 482 394 l 265 394 l 265 592 l 361 592 b 493 688 449 592 493 628 b 381 783 493 747 460 783 b 226 672 294 783 251 732 l 36 782 b 381 992 96 901 200 992 b 715 704 574 992 715 882 b 618 503 715 617 679 550 "},"И":{"ha":931,"x_min":0,"x_max":0,"o":"m 625 528 l 250 0 l 83 0 l 83 972 l 306 972 l 306 444 l 681 972 l 847 972 l 847 0 l 625 0 "},"Й":{"ha":931,"x_min":0,"x_max":0,"o":"m 257 1235 l 674 1235 l 674 1054 l 257 1054 m 625 528 l 250 0 l 83 0 l 83 972 l 306 972 l 306 444 l 681 972 l 847 972 l 847 0 l 625 0 "},"К":{"ha":869,"x_min":0,"x_max":0,"o":"m 617 0 l 306 450 l 306 0 l 83 0 l 83 972 l 306 972 l 306 550 l 603 972 l 856 972 l 528 499 l 869 0 "},"Ќ":{"ha":869,"x_min":0,"x_max":0,"o":"m 514 1054 l 314 1054 l 425 1249 l 675 1249 m 617 0 l 306 450 l 306 0 l 83 0 l 83 972 l 306 972 l 306 550 l 603 972 l 856 972 l 528 499 l 869 0 "},"Л":{"ha":931,"x_min":0,"x_max":0,"o":"m 14 208 b 175 386 114 193 175 224 l 175 972 l 847 972 l 847 0 l 625 0 l 625 758 l 397 758 l 397 394 b 14 0 397 47 193 -19 "},"М":{"ha":1139,"x_min":0,"x_max":0,"o":"m 1056 0 l 833 0 l 833 565 l 582 153 l 557 153 l 306 565 l 306 0 l 83 0 l 83 972 l 306 972 l 569 540 l 833 972 l 1056 972 "},"Н":{"ha":917,"x_min":0,"x_max":0,"o":"m 833 972 l 833 0 l 611 0 l 611 386 l 306 386 l 306 0 l 83 0 l 83 972 l 306 972 l 306 600 l 611 600 l 611 972 "},"О":{"ha":1094,"x_min":0,"x_max":0,"o":"m 547 -19 b 42 486 268 -19 42 200 b 547 992 42 772 268 992 b 1053 486 826 992 1053 772 b 547 -19 1053 200 826 -19 m 547 197 b 831 486 706 197 831 313 b 547 775 831 660 706 775 b 264 486 389 775 264 660 b 547 197 264 313 389 197 "},"П":{"ha":903,"x_min":0,"x_max":0,"o":"m 819 0 l 597 0 l 597 758 l 306 758 l 306 0 l 83 0 l 83 972 l 819 972 "},"Р":{"ha":819,"x_min":0,"x_max":0,"o":"m 451 972 b 792 639 643 972 792 824 b 451 306 792 454 643 306 l 306 306 l 306 0 l 83 0 l 83 972 l 451 972 m 451 514 b 569 639 519 514 569 568 b 451 764 569 710 519 764 l 306 764 l 306 514 l 451 514 "},"С":{"ha":999,"x_min":0,"x_max":0,"o":"m 547 -19 b 42 486 254 -19 42 200 b 547 992 42 772 254 992 b 964 767 724 992 879 904 l 772 656 b 547 775 729 731 646 775 b 264 486 375 775 264 660 b 547 197 264 313 375 197 b 772 317 646 197 731 242 l 964 206 b 547 -19 881 68 725 -19 "},"Т":{"ha":750,"x_min":0,"x_max":0,"o":"m 736 758 l 486 758 l 486 0 l 264 0 l 264 758 l 14 758 l 14 972 l 736 972 "},"У":{"ha":847,"x_min":0,"x_max":0,"o":"m 833 972 l 553 286 b 144 0 467 76 326 -10 l 144 208 b 339 304 246 199 301 236 l 28 972 l 250 972 l 440 547 l 611 972 "},"Ў":{"ha":847,"x_min":0,"x_max":0,"o":"m 633 1053 l 217 1053 l 217 1233 l 633 1233 m 833 972 l 553 286 b 144 0 467 76 326 -10 l 144 208 b 339 304 246 199 301 236 l 28 972 l 250 972 l 440 547 l 611 972 "},"Ф":{"ha":1144,"x_min":0,"x_max":0,"o":"m 1117 486 b 681 86 1117 265 944 118 l 681 -28 l 464 -28 l 464 86 b 28 486 200 118 28 265 b 464 886 28 707 200 854 l 464 1000 l 681 1000 l 681 886 b 1117 486 944 854 1117 707 m 250 486 b 464 290 250 375 319 310 l 464 682 b 250 486 319 663 250 597 m 681 290 b 894 486 825 310 894 375 b 681 682 894 597 825 663 l 681 290 "},"Х":{"ha":861,"x_min":0,"x_max":0,"o":"m 594 0 l 431 281 l 267 0 l 14 0 l 304 499 l 28 972 l 281 972 l 431 715 l 581 972 l 833 972 l 557 499 l 847 0 "},"Ч":{"ha":882,"x_min":0,"x_max":0,"o":"m 799 972 l 799 0 l 576 0 l 576 339 b 411 308 522 318 469 308 b 63 625 218 308 63 421 l 63 972 l 285 972 l 285 658 b 417 522 285 568 340 522 b 576 554 476 522 526 532 l 576 972 "},"Ц":{"ha":958,"x_min":0,"x_max":0,"o":"m 924 214 l 924 -186 l 701 -186 l 701 0 l 83 0 l 83 972 l 306 972 l 306 214 l 597 214 l 597 972 l 819 972 l 819 214 "},"Ш":{"ha":1306,"x_min":0,"x_max":0,"o":"m 1222 972 l 1222 0 l 83 0 l 83 972 l 306 972 l 306 214 l 542 214 l 542 972 l 764 972 l 764 214 l 1000 214 l 1000 972 "},"Щ":{"ha":1361,"x_min":0,"x_max":0,"o":"m 1326 214 l 1326 -186 l 1104 -186 l 1104 0 l 83 0 l 83 972 l 306 972 l 306 214 l 542 214 l 542 972 l 764 972 l 764 214 l 1000 214 l 1000 972 l 1222 972 l 1222 214 "},"Џ":{"ha":903,"x_min":0,"x_max":0,"o":"m 819 972 l 819 0 l 563 0 l 563 -186 l 340 -186 l 340 0 l 83 0 l 83 972 l 306 972 l 306 214 l 597 214 l 597 972 "},"Ь":{"ha":819,"x_min":0,"x_max":0,"o":"m 451 667 b 792 333 643 667 792 518 b 451 0 792 149 643 0 l 83 0 l 83 972 l 306 972 l 306 667 l 451 667 m 451 208 b 569 333 519 208 569 263 b 451 458 569 404 519 458 l 306 458 l 306 208 l 451 208 "},"Ъ":{"ha":958,"x_min":0,"x_max":0,"o":"m 222 758 l 0 758 l 0 972 l 444 972 l 444 667 l 590 667 b 931 333 782 667 931 518 b 590 0 931 149 782 0 l 222 0 m 590 208 b 708 333 658 208 708 263 b 590 458 708 404 658 458 l 444 458 l 444 208 "},"Ы":{"ha":1181,"x_min":0,"x_max":0,"o":"m 83 972 l 306 972 l 306 667 l 451 667 b 792 333 643 667 792 518 b 451 0 792 149 643 0 l 83 0 m 875 972 l 1097 972 l 1097 0 l 875 0 m 451 208 b 569 333 519 208 569 263 b 451 458 569 404 519 458 l 306 458 l 306 208 "},"Љ":{"ha":1319,"x_min":0,"x_max":0,"o":"m 951 625 b 1292 313 1143 625 1292 497 b 951 0 1292 128 1143 0 l 611 0 l 611 758 l 397 758 l 397 394 b 14 -3 397 47 193 -19 l 14 206 b 175 386 114 193 175 224 l 175 972 l 833 972 l 833 625 l 951 625 m 951 208 b 1069 313 1019 208 1069 242 b 951 417 1069 383 1019 417 l 833 417 l 833 208 l 951 208 "},"Њ":{"ha":1319,"x_min":0,"x_max":0,"o":"m 951 625 b 1292 313 1143 625 1292 497 b 951 0 1292 128 1143 0 l 611 0 l 611 417 l 306 417 l 306 0 l 83 0 l 83 972 l 306 972 l 306 625 l 611 625 l 611 972 l 833 972 l 833 625 l 951 625 m 951 208 b 1069 313 1019 208 1069 242 b 951 417 1069 383 1019 417 l 833 417 l 833 208 l 951 208 "},"Ѕ":{"ha":813,"x_min":0,"x_max":0,"o":"m 424 -19 b 35 221 219 -19 89 78 l 226 332 b 431 197 261 251 321 197 b 563 276 536 197 563 239 b 361 400 563 336 507 360 b 75 696 217 440 75 510 b 401 992 75 883 233 992 b 757 772 561 992 686 915 l 569 663 b 401 775 536 732 490 775 b 297 701 332 775 297 740 b 472 581 297 657 321 626 b 785 279 619 536 785 485 b 424 -19 785 92 635 -19 "},"Є":{"ha":999,"x_min":0,"x_max":0,"o":"m 547 197 b 772 317 646 197 731 242 l 964 206 b 547 -19 881 68 725 -19 b 42 486 254 -19 42 200 b 547 992 42 772 254 992 b 964 767 724 992 879 904 l 772 656 b 547 775 729 731 646 775 b 279 590 413 775 315 704 l 676 590 l 676 382 l 279 382 b 547 197 315 268 413 197 "},"Э":{"ha":999,"x_min":0,"x_max":0,"o":"m 451 992 b 957 486 744 992 957 772 b 451 -19 957 200 744 -19 b 35 206 274 -19 118 68 l 226 317 b 451 197 268 242 353 197 b 719 382 586 197 683 268 l 322 382 l 322 590 l 719 590 b 451 775 683 704 586 775 b 226 656 353 775 269 731 l 35 767 b 451 992 119 904 275 992 "},"І":{"ha":389,"x_min":0,"x_max":0,"o":"m 306 972 l 306 0 l 83 0 l 83 972 "},"Ї":{"ha":389,"x_min":0,"x_max":0,"o":"m 63 1028 b -42 1132 6 1028 -42 1075 b 63 1236 -42 1189 6 1236 b 167 1132 119 1236 167 1189 b 63 1028 167 1075 119 1028 m 326 1028 b 222 1132 269 1028 222 1075 b 326 1236 222 1189 269 1236 b 431 1132 383 1236 431 1189 b 326 1028 431 1075 383 1028 m 306 972 l 306 0 l 83 0 l 83 972 "},"Ј":{"ha":797,"x_min":0,"x_max":0,"o":"m 371 -19 b 42 169 217 -19 106 46 l 235 281 b 372 197 265 226 297 197 b 499 313 469 197 499 253 l 499 972 l 721 972 l 721 313 b 371 -19 721 99 571 -19 "},"Ћ":{"ha":986,"x_min":0,"x_max":0,"o":"m 656 644 b 917 371 814 644 917 551 l 917 0 l 694 0 l 694 346 b 600 444 694 417 657 444 b 472 422 551 444 515 436 l 472 0 l 250 0 l 250 758 l 14 758 l 14 972 l 736 972 l 736 758 l 472 758 l 472 619 b 656 644 540 638 594 644 "},"Ю":{"ha":1472,"x_min":0,"x_max":0,"o":"m 925 992 b 1431 486 1204 992 1431 772 b 925 -19 1431 203 1204 -19 b 433 393 676 -19 475 154 l 306 393 l 306 0 l 83 0 l 83 972 l 306 972 l 306 607 l 439 607 b 925 992 490 832 686 992 m 925 197 b 1208 486 1083 197 1208 313 b 925 775 1208 660 1083 775 b 642 486 767 775 642 665 b 925 197 642 313 767 197 "},"Я":{"ha":868,"x_min":0,"x_max":0,"o":"m 785 0 l 563 0 l 563 319 l 492 319 l 285 0 l 35 0 l 263 347 b 63 639 144 397 63 513 b 396 972 63 824 211 972 l 785 972 m 563 514 l 563 764 l 396 764 b 285 639 335 764 285 710 b 396 514 285 568 335 514 "},"Ђ":{"ha":979,"x_min":0,"x_max":0,"o":"m 656 644 b 917 371 814 644 917 551 l 917 283 b 597 -14 917 67 817 -26 l 597 193 b 694 283 674 189 694 217 l 694 346 b 600 444 694 417 657 444 b 472 422 551 444 515 436 l 472 0 l 250 0 l 250 758 l 14 758 l 14 972 l 736 972 l 736 758 l 472 758 l 472 619 b 656 644 540 638 594 644 "},"а":{"ha":865,"x_min":0,"x_max":0,"o":"m 789 694 l 789 0 l 581 0 l 581 65 b 374 -19 535 13 467 -19 b 42 347 192 -19 42 140 b 374 714 42 554 192 714 b 581 629 467 714 535 682 l 581 694 m 415 178 b 581 347 511 178 581 243 b 415 517 581 451 511 517 b 250 347 319 517 250 451 b 415 178 250 243 319 178 "},"б":{"ha":788,"x_min":0,"x_max":0,"o":"m 413 -19 b 42 358 182 -19 42 144 b 307 810 42 582 85 700 b 557 1000 456 883 517 901 l 729 901 b 468 678 701 785 615 733 b 289 543 344 632 308 592 b 479 608 339 588 407 608 b 767 306 607 608 767 503 b 413 -19 767 118 631 -19 m 411 168 b 558 306 497 168 558 226 b 407 446 558 386 494 446 b 260 311 335 446 260 397 b 411 168 260 226 326 168 "},"в":{"ha":715,"x_min":0,"x_max":0,"o":"m 594 356 b 688 199 654 324 688 269 b 451 0 688 83 606 0 l 76 0 l 76 694 l 424 694 b 660 496 578 694 660 611 b 594 356 660 436 638 388 m 271 528 l 271 431 l 401 431 b 463 478 439 431 463 444 b 401 528 463 513 439 528 m 424 172 b 485 224 460 172 485 189 b 424 272 485 257 460 272 l 271 272 l 271 172 l 424 172 "},"г":{"ha":576,"x_min":0,"x_max":0,"o":"m 563 494 l 285 494 l 285 0 l 76 0 l 76 694 l 563 694 "},"ѓ":{"ha":576,"x_min":0,"x_max":0,"o":"m 375 778 l 175 778 l 286 972 l 536 972 m 563 494 l 285 494 l 285 0 l 76 0 l 76 694 l 563 694 "},"ґ":{"ha":576,"x_min":0,"x_max":0,"o":"m 563 833 l 563 494 l 285 494 l 285 0 l 76 0 l 76 694 l 360 694 l 360 833 "},"д":{"ha":833,"x_min":0,"x_max":0,"o":"m 806 194 l 806 -186 l 603 -186 l 603 0 l 217 0 l 217 -186 l 14 -186 l 14 194 l 100 194 b 156 435 135 249 156 315 l 156 694 l 715 694 l 715 194 m 513 194 l 513 508 l 358 508 l 358 435 b 318 194 358 333 344 257 "},"е":{"ha":806,"x_min":0,"x_max":0,"o":"m 263 264 b 429 167 289 192 353 167 b 563 219 486 167 535 189 l 729 124 b 426 -19 661 29 558 -19 b 42 347 189 -19 42 140 b 411 714 42 554 192 714 b 764 347 614 714 764 557 b 756 264 764 318 761 290 l 263 264 m 557 419 b 410 529 535 500 472 529 b 258 419 331 529 278 490 "},"ё":{"ha":806,"x_min":0,"x_max":0,"o":"m 271 757 b 167 861 214 757 167 804 b 271 965 167 918 214 965 b 375 861 328 965 375 918 b 271 757 375 804 328 757 m 535 757 b 431 861 478 757 431 804 b 535 965 431 918 478 965 b 639 861 592 965 639 918 b 535 757 639 804 592 757 m 263 264 b 429 167 289 192 353 167 b 563 219 486 167 535 189 l 729 124 b 426 -19 661 29 558 -19 b 42 347 189 -19 42 140 b 411 714 42 554 192 714 b 764 347 614 714 764 557 b 756 264 764 318 761 290 l 263 264 m 557 419 b 410 529 535 500 472 529 b 258 419 331 529 278 490 "},"ж":{"ha":1069,"x_min":0,"x_max":0,"o":"m 825 0 l 636 301 l 636 0 l 433 0 l 433 301 l 244 0 l 14 0 l 244 347 l 28 694 l 258 694 l 433 397 l 433 694 l 636 694 l 636 397 l 811 694 l 1042 694 l 825 347 l 1056 0 "},"з":{"ha":628,"x_min":0,"x_max":0,"o":"m 499 353 b 600 189 564 318 600 260 b 313 -19 600 74 500 -19 b 21 146 174 -19 75 33 l 189 246 b 315 161 208 192 251 161 b 397 215 367 161 397 181 b 332 264 397 246 378 264 l 235 264 l 235 439 l 310 439 b 375 486 354 439 375 456 b 310 536 375 519 349 536 b 196 456 257 536 221 511 l 28 551 b 306 714 86 664 186 714 b 572 506 475 714 572 615 b 499 353 572 442 549 388 "},"и":{"ha":806,"x_min":0,"x_max":0,"o":"m 729 694 l 729 0 l 526 0 l 526 347 l 229 0 l 76 0 l 76 694 l 279 694 l 279 347 l 576 694 "},"й":{"ha":806,"x_min":0,"x_max":0,"o":"m 194 957 l 611 957 l 611 776 l 194 776 m 729 694 l 729 0 l 526 0 l 526 347 l 229 0 l 76 0 l 76 694 l 279 694 l 279 347 l 576 694 "},"к":{"ha":743,"x_min":0,"x_max":0,"o":"m 507 0 l 285 307 l 285 0 l 76 0 l 76 694 l 285 694 l 285 390 l 493 694 l 736 694 l 483 347 l 743 0 "},"ќ":{"ha":743,"x_min":0,"x_max":0,"o":"m 458 778 l 258 778 l 369 972 l 619 972 m 507 0 l 285 307 l 285 0 l 76 0 l 76 694 l 285 694 l 285 390 l 493 694 l 736 694 l 483 347 l 743 0 "},"л":{"ha":757,"x_min":0,"x_max":0,"o":"m 681 0 l 472 0 l 472 494 l 322 494 l 322 288 b 14 0 322 78 217 -24 l 14 194 b 114 301 79 175 114 215 l 114 694 l 681 694 "},"м":{"ha":889,"x_min":0,"x_max":0,"o":"m 813 0 l 613 0 l 613 358 l 457 117 l 432 117 l 276 358 l 276 0 l 76 0 l 76 694 l 276 694 l 444 432 l 613 694 l 813 694 "},"н":{"ha":806,"x_min":0,"x_max":0,"o":"m 729 694 l 729 0 l 521 0 l 521 250 l 285 250 l 285 0 l 76 0 l 76 694 l 285 694 l 285 444 l 521 444 l 521 694 "},"о":{"ha":819,"x_min":0,"x_max":0,"o":"m 410 -19 b 42 347 206 -19 42 140 b 410 714 42 554 206 714 b 778 347 614 714 778 554 b 410 -19 778 140 614 -19 m 410 183 b 569 347 500 183 569 249 b 410 511 569 446 500 511 b 250 347 319 511 250 446 b 410 183 250 249 319 183 "},"п":{"ha":806,"x_min":0,"x_max":0,"o":"m 729 0 l 521 0 l 521 500 l 285 500 l 285 0 l 76 0 l 76 694 l 729 694 "},"р":{"ha":865,"x_min":0,"x_max":0,"o":"m 492 714 b 824 347 674 714 824 554 b 492 -19 824 140 674 -19 b 285 65 399 -19 331 13 l 285 -278 l 76 -278 l 76 694 l 285 694 l 285 629 b 492 714 331 682 399 714 m 450 178 b 615 347 546 178 615 243 b 450 517 615 451 546 517 b 285 347 354 517 285 451 b 450 178 285 243 354 178 "},"с":{"ha":738,"x_min":0,"x_max":0,"o":"m 410 -19 b 42 347 199 -19 42 140 b 410 714 42 554 199 714 b 724 536 544 714 664 643 l 542 431 b 407 508 518 479 468 508 b 250 347 317 508 250 443 b 407 186 250 251 317 186 b 542 264 468 186 519 215 l 724 160 b 410 -19 664 51 546 -19 "},"т":{"ha":653,"x_min":0,"x_max":0,"o":"m 639 494 l 432 494 l 432 0 l 224 0 l 224 494 l 14 494 l 14 694 l 639 694 "},"у":{"ha":736,"x_min":0,"x_max":0,"o":"m 736 694 l 499 21 b 103 -278 421 -200 283 -287 l 103 -83 b 272 13 196 -83 240 -61 l 0 694 l 222 694 l 383 268 l 514 694 "},"ў":{"ha":736,"x_min":0,"x_max":0,"o":"m 578 776 l 161 776 l 161 957 l 578 957 m 736 694 l 499 21 b 103 -278 421 -200 283 -287 l 103 -83 b 272 13 196 -83 240 -61 l 0 694 l 222 694 l 383 268 l 514 694 "},"ф":{"ha":958,"x_min":0,"x_max":0,"o":"m 917 347 b 581 -8 917 168 793 25 l 581 -278 l 378 -278 l 378 -8 b 42 347 165 25 42 168 b 378 703 42 526 165 669 l 378 972 l 581 972 l 581 703 b 917 347 793 669 917 526 m 247 347 b 378 190 247 271 292 214 l 378 504 b 247 347 292 481 247 424 m 581 190 b 711 347 667 214 711 271 b 581 504 711 424 667 481 l 581 190 "},"х":{"ha":736,"x_min":0,"x_max":0,"o":"m 497 0 l 368 183 l 239 0 l 0 0 l 249 353 l 8 694 l 247 694 l 368 522 l 489 694 l 728 694 l 488 353 l 736 0 "},"ч":{"ha":757,"x_min":0,"x_max":0,"o":"m 681 694 l 681 0 l 472 0 l 472 208 b 319 186 425 194 375 186 b 42 438 164 186 42 267 l 42 694 l 250 694 l 250 465 b 361 381 250 399 303 381 b 472 403 408 381 443 389 l 472 694 "},"ц":{"ha":847,"x_min":0,"x_max":0,"o":"m 819 194 l 819 -186 l 617 -186 l 617 0 l 76 0 l 76 694 l 285 694 l 285 194 l 493 194 l 493 694 l 701 694 l 701 194 "},"ш":{"ha":1167,"x_min":0,"x_max":0,"o":"m 1090 694 l 1090 0 l 76 0 l 76 694 l 285 694 l 285 194 l 479 194 l 479 694 l 688 694 l 688 194 l 882 194 l 882 694 "},"щ":{"ha":1181,"x_min":0,"x_max":0,"o":"m 1153 194 l 1153 -186 l 950 -186 l 950 0 l 76 0 l 76 694 l 285 694 l 285 194 l 465 194 l 465 694 l 674 694 l 674 194 l 854 194 l 854 694 l 1063 694 l 1063 194 "},"џ":{"ha":806,"x_min":0,"x_max":0,"o":"m 729 694 l 729 0 l 504 0 l 504 -186 l 301 -186 l 301 0 l 76 0 l 76 694 l 285 694 l 285 194 l 521 194 l 521 694 "},"ь":{"ha":701,"x_min":0,"x_max":0,"o":"m 401 486 b 674 243 569 486 674 389 b 401 0 674 97 569 0 l 76 0 l 76 694 l 285 694 l 285 486 l 401 486 m 403 181 b 471 243 444 181 471 207 b 403 306 471 279 444 306 l 285 306 l 285 181 l 403 181 "},"ъ":{"ha":813,"x_min":0,"x_max":0,"o":"m 513 486 b 785 243 681 486 785 389 b 513 0 785 97 681 0 l 188 0 l 188 494 l 0 494 l 0 694 l 396 694 l 396 486 l 513 486 m 514 181 b 582 243 556 181 582 207 b 514 306 582 279 556 306 l 396 306 l 396 181 l 514 181 "},"ы":{"ha":1028,"x_min":0,"x_max":0,"o":"m 401 486 b 674 243 569 486 674 389 b 401 0 674 97 569 0 l 76 0 l 76 694 l 285 694 l 285 486 l 401 486 m 951 694 l 951 0 l 743 0 l 743 694 m 403 181 b 471 243 444 181 471 207 b 403 306 471 279 444 306 l 285 306 l 285 181 l 403 181 "},"љ":{"ha":1049,"x_min":0,"x_max":0,"o":"m 776 472 b 1021 236 931 472 1021 382 b 776 0 1021 90 926 0 l 458 0 l 458 494 l 322 494 l 322 288 b 14 -11 322 78 217 -24 l 14 183 b 114 301 79 175 114 215 l 114 694 l 667 694 l 667 472 l 776 472 m 778 181 b 832 236 806 181 832 200 b 778 292 832 272 806 292 l 667 292 l 667 181 l 778 181 "},"њ":{"ha":1097,"x_min":0,"x_max":0,"o":"m 811 472 b 1069 236 965 472 1069 382 b 811 0 1069 90 961 0 l 493 0 l 493 278 l 271 278 l 271 0 l 63 0 l 63 694 l 271 694 l 271 472 l 493 472 l 493 694 l 701 694 l 701 472 l 811 472 m 813 181 b 867 236 840 181 867 200 b 813 292 867 272 840 292 l 701 292 l 701 181 l 813 181 "},"ѕ":{"ha":650,"x_min":0,"x_max":0,"o":"m 274 492 b 615 208 274 413 615 465 b 326 -19 615 49 476 -19 b 28 146 188 -19 82 33 l 208 249 b 326 167 226 196 265 167 b 401 210 376 167 401 182 b 60 486 401 286 60 246 b 332 714 60 638 188 714 b 603 565 444 714 544 664 l 425 469 b 332 531 406 506 378 531 b 274 492 296 531 274 517 "},"є":{"ha":744,"x_min":0,"x_max":0,"o":"m 407 179 b 554 260 483 179 533 215 l 731 160 b 410 -19 671 51 553 -19 b 42 347 199 -19 42 126 b 410 714 42 568 199 714 b 731 536 553 714 671 644 l 554 435 b 407 515 532 479 483 515 b 274 440 350 515 301 486 l 467 440 l 467 254 l 274 254 b 407 179 301 208 350 179 "},"э":{"ha":744,"x_min":0,"x_max":0,"o":"m 335 714 b 703 347 546 714 703 568 b 335 -19 703 126 546 -19 b 14 160 192 -19 74 51 l 190 260 b 338 179 211 215 261 179 b 471 254 394 179 443 208 l 278 254 l 278 440 l 471 440 b 338 515 443 486 394 515 b 190 435 261 515 213 479 l 14 536 b 335 714 74 644 192 714 "},"і":{"ha":361,"x_min":0,"x_max":0,"o":"m 181 756 b 56 881 113 756 56 813 b 181 1006 56 949 113 1006 b 306 881 249 1006 306 949 b 181 756 306 813 249 756 m 76 694 l 285 694 l 285 0 l 76 0 "},"ї":{"ha":361,"x_min":0,"x_max":0,"o":"m 49 750 b -56 854 -8 750 -56 797 b 49 958 -56 911 -8 958 b 153 854 106 958 153 911 b 49 750 153 797 106 750 m 313 750 b 208 854 256 750 208 797 b 313 958 208 911 256 958 b 417 854 369 958 417 911 b 313 750 417 797 369 750 m 76 694 l 285 694 l 285 0 l 76 0 "},"ј":{"ha":382,"x_min":0,"x_max":0,"o":"m 201 756 b 76 881 133 756 76 813 b 201 1006 76 949 133 1006 b 326 881 269 1006 326 949 b 201 756 326 813 269 756 m 97 694 l 306 694 l 306 0 b -14 -297 306 -217 206 -310 l -14 -97 b 97 0 63 -101 97 -74 "},"ћ":{"ha":817,"x_min":0,"x_max":0,"o":"m 490 714 b 750 426 631 714 750 614 l 750 0 l 542 0 l 542 396 b 421 522 542 482 488 522 b 292 379 344 522 292 478 l 292 0 l 83 0 l 83 758 l 0 758 l 0 889 l 83 889 l 83 972 l 292 972 l 292 889 l 486 889 l 486 758 l 292 758 l 292 629 b 490 714 329 681 399 714 "},"ю":{"ha":1132,"x_min":0,"x_max":0,"o":"m 722 714 b 1090 347 926 714 1090 554 b 722 -19 1090 140 926 -19 b 372 250 551 -19 413 92 l 285 250 l 285 0 l 76 0 l 76 694 l 285 694 l 285 444 l 372 444 b 722 714 413 603 551 714 m 722 183 b 882 347 813 183 882 249 b 722 511 882 446 813 511 b 563 347 632 511 563 446 b 722 183 563 249 632 183 "},"я":{"ha":729,"x_min":0,"x_max":0,"o":"m 653 0 l 450 0 l 450 200 l 407 200 l 264 0 l 28 0 l 190 229 b 56 447 104 272 56 361 b 314 694 56 569 146 694 l 653 694 m 332 511 b 258 440 288 511 258 485 b 332 372 258 397 288 372 l 450 372 l 450 511 l 332 511 "},"ђ":{"ha":817,"x_min":0,"x_max":0,"o":"m 490 714 b 750 426 631 714 750 614 l 750 0 b 431 -297 750 -217 650 -310 l 431 -97 b 542 0 507 -101 542 -74 l 542 396 b 421 522 542 482 488 522 b 292 379 344 522 292 478 l 292 0 l 83 0 l 83 758 l 0 758 l 0 889 l 83 889 l 83 972 l 292 972 l 292 889 l 486 889 l 486 758 l 292 758 l 292 629 b 490 714 329 681 399 714 "},"Δ":{"ha":917,"x_min":0,"x_max":0,"o":"m 917 0 l 0 0 l 317 972 l 600 972 m 613 208 l 458 729 l 304 208 "},"Ω":{"ha":1067,"x_min":0,"x_max":0,"o":"m 1039 514 b 908 214 1039 394 989 290 l 1019 214 l 1019 0 l 633 0 l 633 214 b 817 486 742 251 817 351 b 533 775 817 660 692 775 b 250 486 375 775 250 660 b 433 214 250 351 325 251 l 433 0 l 47 0 l 47 214 l 158 214 b 28 514 76 290 28 394 b 533 992 28 786 254 992 b 1039 514 813 992 1039 786 "},"π":{"ha":931,"x_min":0,"x_max":0,"o":"m 903 500 l 794 500 l 794 0 l 586 0 l 586 500 l 350 500 l 350 0 l 142 0 l 142 500 l 28 500 l 28 694 l 903 694 "},"⁄":{"ha":250,"x_min":0,"x_max":0,"o":"m -222 0 l 333 972 l 472 972 l -83 0 "},"½":{"ha":1132,"x_min":0,"x_max":0,"o":"m 149 417 l 149 804 l 39 774 l 0 911 l 169 972 l 318 972 l 318 417 m 853 972 l 297 0 l 158 0 l 714 972 m 1085 153 l 1085 0 l 660 0 l 660 107 l 861 311 b 906 385 890 340 906 363 b 863 422 906 408 889 422 b 789 357 828 422 806 397 l 651 435 b 865 575 686 517 758 575 b 1076 399 983 575 1076 504 b 979 218 1076 325 1032 271 l 914 153 "},"¼":{"ha":1128,"x_min":0,"x_max":0,"o":"m 149 417 l 149 804 l 39 774 l 0 911 l 169 972 l 318 972 l 318 417 m 853 972 l 297 0 l 158 0 l 714 972 m 1107 85 l 1056 85 l 1056 0 l 894 0 l 894 85 l 644 85 l 644 238 l 814 556 l 994 556 l 832 238 l 894 238 l 894 322 l 1056 322 l 1056 238 l 1107 238 "},"¾":{"ha":1228,"x_min":0,"x_max":0,"o":"m 450 586 b 231 397 450 461 367 397 b 7 522 111 397 42 446 l 150 606 b 231 543 167 557 193 543 b 279 586 263 543 279 558 b 224 628 279 614 256 628 l 190 628 l 132 714 l 218 819 l 33 819 l 33 972 l 424 972 l 424 854 l 331 744 b 450 586 407 719 450 664 m 953 972 l 397 0 l 258 0 l 814 972 m 1207 85 l 1156 85 l 1156 0 l 994 0 l 994 85 l 744 85 l 744 238 l 914 556 l 1094 556 l 932 238 l 994 238 l 994 322 l 1156 322 l 1156 238 l 1207 238 "},"⅛":{"ha":1122,"x_min":0,"x_max":0,"o":"m 149 417 l 149 804 l 39 774 l 0 911 l 169 972 l 318 972 l 318 417 m 853 972 l 297 0 l 158 0 l 714 972 m 1017 292 b 1094 153 1068 260 1094 210 b 876 -19 1094 49 1017 -19 b 658 153 736 -19 658 49 b 736 292 658 210 685 260 b 678 406 700 318 678 357 b 876 575 678 511 763 575 b 1075 406 990 575 1075 511 b 1017 292 1075 357 1053 318 m 876 435 b 819 389 842 435 819 419 b 876 344 819 360 842 344 b 933 389 907 344 933 360 b 876 435 933 419 907 435 m 876 122 b 936 176 914 122 936 143 b 876 229 936 208 914 229 b 817 176 839 229 817 208 b 876 122 817 143 839 122 "},"⅜":{"ha":1222,"x_min":0,"x_max":0,"o":"m 450 586 b 231 397 450 461 367 397 b 7 522 111 397 42 446 l 150 606 b 231 543 167 557 193 543 b 279 586 263 543 279 558 b 224 628 279 614 256 628 l 190 628 l 132 714 l 218 819 l 33 819 l 33 972 l 424 972 l 424 854 l 331 744 b 450 586 407 719 450 664 m 953 972 l 397 0 l 258 0 l 814 972 m 1117 292 b 1194 153 1168 260 1194 210 b 976 -19 1194 49 1117 -19 b 758 153 836 -19 758 49 b 836 292 758 210 785 260 b 778 406 800 318 778 357 b 976 575 778 511 863 575 b 1175 406 1090 575 1175 511 b 1117 292 1175 357 1153 318 m 976 435 b 919 389 942 435 919 419 b 976 344 919 360 942 344 b 1033 389 1007 344 1033 360 b 976 435 1033 419 1007 435 m 976 122 b 1036 176 1014 122 1036 143 b 976 229 1036 208 1014 229 b 917 176 939 229 917 208 b 976 122 917 143 939 122 "},"⅝":{"ha":1203,"x_min":0,"x_max":0,"o":"m 443 579 b 238 397 443 454 351 397 b 14 522 118 397 49 446 l 153 601 b 232 539 168 557 194 539 b 289 583 272 539 289 558 b 232 628 289 610 272 628 l 51 628 l 75 972 l 414 972 l 414 819 l 217 819 l 213 763 l 244 763 b 443 579 360 763 443 711 m 933 972 l 378 0 l 239 0 l 794 972 m 1097 292 b 1175 153 1149 260 1175 210 b 957 -19 1175 49 1097 -19 b 739 153 817 -19 739 49 b 817 292 739 210 765 260 b 758 406 781 318 758 357 b 957 575 758 511 843 575 b 1156 406 1071 575 1156 511 b 1097 292 1156 357 1133 318 m 957 435 b 900 389 922 435 900 419 b 957 344 900 360 922 344 b 1014 389 988 344 1014 360 b 957 435 1014 419 988 435 m 957 122 b 1017 176 994 122 1017 143 b 957 229 1017 208 994 229 b 897 176 919 229 897 208 b 957 122 897 143 919 122 "},"⅞":{"ha":1151,"x_min":0,"x_max":0,"o":"m 49 417 l 206 819 l 0 819 l 0 972 l 389 972 l 389 843 l 224 417 m 882 972 l 326 0 l 188 0 l 743 972 m 1046 292 b 1124 153 1097 260 1124 210 b 906 -19 1124 49 1046 -19 b 688 153 765 -19 688 49 b 765 292 688 210 714 260 b 707 406 729 318 707 357 b 906 575 707 511 792 575 b 1104 406 1019 575 1104 511 b 1046 292 1104 357 1082 318 m 906 435 b 849 389 871 435 849 419 b 906 344 849 360 871 344 b 963 389 936 344 963 360 b 906 435 963 419 936 435 m 906 122 b 965 176 943 122 965 143 b 906 229 965 208 943 229 b 846 176 868 229 846 208 b 906 122 846 143 868 122 "},"*":{"ha":556,"x_min":0,"x_max":0,"o":"m 486 722 l 361 735 l 438 639 l 336 575 l 278 693 l 219 575 l 118 639 l 194 735 l 69 722 l 69 844 l 194 832 l 118 928 l 219 992 l 278 874 l 336 992 l 438 928 l 361 832 l 486 844 "},"\\":{"ha":722,"x_min":0,"x_max":0,"o":"m 42 1111 l 125 1111 l 681 -139 l 597 -139 "},"·":{"ha":389,"x_min":0,"x_max":0,"o":"m 194 349 b 63 481 122 349 63 408 b 194 613 63 553 122 613 b 326 481 267 613 326 553 b 194 349 326 408 267 349 "},"•":{"ha":528,"x_min":0,"x_max":0,"o":"m 267 278 b 56 489 150 278 56 372 b 267 694 56 603 150 694 b 472 489 381 694 472 603 b 267 278 472 372 381 278 "},":":{"ha":389,"x_min":0,"x_max":0,"o":"m 194 453 b 63 585 122 453 63 513 b 194 717 63 657 122 717 b 326 585 267 717 326 657 b 194 453 326 513 267 453 m 194 -19 b 63 113 122 -19 63 40 b 194 244 63 185 122 244 b 326 113 267 244 326 185 b 194 -19 326 40 267 -19 "},",":{"ha":403,"x_min":0,"x_max":0,"o":"m 229 -194 l 63 -194 l 118 215 l 340 215 "},"…":{"ha":1056,"x_min":0,"x_max":0,"o":"m 194 -19 b 63 113 122 -19 63 40 b 194 244 63 185 122 244 b 326 113 267 244 326 185 b 194 -19 326 40 267 -19 m 528 -19 b 396 113 456 -19 396 40 b 528 244 396 185 456 244 b 660 113 600 244 660 185 b 528 -19 660 40 600 -19 m 861 -19 b 729 113 789 -19 729 40 b 861 244 729 185 789 244 b 993 113 933 244 993 185 b 861 -19 993 40 933 -19 "},"!":{"ha":389,"x_min":0,"x_max":0,"o":"m 69 694 l 69 972 l 319 972 l 319 694 l 278 347 l 111 347 m 194 -19 b 63 113 122 -19 63 40 b 194 244 63 185 122 244 b 326 113 267 244 326 185 b 194 -19 326 40 267 -19 "},"¡":{"ha":389,"x_min":0,"x_max":0,"o":"m 194 714 b 326 582 267 714 326 654 b 194 450 326 510 267 450 b 63 582 122 450 63 510 b 194 714 63 654 122 714 m 278 347 l 319 0 l 319 -278 l 69 -278 l 69 0 l 111 347 "},"#":{"ha":863,"x_min":0,"x_max":0,"o":"m 664 542 l 644 431 l 792 431 l 768 278 l 619 278 l 585 69 l 426 69 l 461 278 l 333 278 l 299 69 l 140 69 l 175 278 l 28 278 l 53 431 l 200 431 l 219 542 l 71 542 l 96 694 l 244 694 l 279 903 l 438 903 l 403 694 l 531 694 l 565 903 l 724 903 l 689 694 l 835 694 l 810 542 m 506 542 l 378 542 l 358 431 l 486 431 "},".":{"ha":389,"x_min":0,"x_max":0,"o":"m 194 -19 b 63 113 122 -19 63 40 b 194 244 63 185 122 244 b 326 113 267 244 326 185 b 194 -19 326 40 267 -19 "},"?":{"ha":778,"x_min":0,"x_max":0,"o":"m 264 347 b 486 694 264 510 486 572 b 383 775 486 743 454 775 b 233 658 307 775 261 724 l 42 768 b 392 992 103 911 238 992 b 708 714 550 992 708 894 b 486 347 708 507 486 443 l 264 347 m 375 -19 b 243 113 303 -19 243 40 b 375 244 243 185 303 244 b 507 113 447 244 507 185 b 375 -19 507 40 447 -19 "},"¿":{"ha":778,"x_min":0,"x_max":0,"o":"m 403 714 b 535 582 475 714 535 654 b 403 450 535 510 475 450 b 271 582 331 450 271 510 b 403 714 271 654 331 714 m 514 347 b 292 0 514 185 292 122 b 394 -81 292 -49 324 -81 b 544 36 471 -81 517 -29 l 736 -74 b 386 -297 675 -217 540 -297 b 69 -19 228 -297 69 -200 b 292 347 69 188 292 251 l 514 347 "},"\"":{"ha":556,"x_min":0,"x_max":0,"o":"m 56 972 l 250 972 l 222 639 l 83 639 m 306 972 l 500 972 l 472 639 l 333 639 "},"'":{"ha":306,"x_min":0,"x_max":0,"o":"m 56 972 l 250 972 l 222 639 l 83 639 "},";":{"ha":403,"x_min":0,"x_max":0,"o":"m 208 453 b 76 585 136 453 76 513 b 208 717 76 657 136 717 b 340 585 281 717 340 657 b 208 453 340 513 281 453 m 229 -194 l 63 -194 l 118 215 l 340 215 "},"/":{"ha":722,"x_min":0,"x_max":0,"o":"m 42 -139 l 597 1111 l 681 1111 l 125 -139 "},"_":{"ha":722,"x_min":0,"x_max":0,"o":"m 42 -51 l 681 -51 l 681 -251 l 42 -251 "},"{":{"ha":500,"x_min":0,"x_max":0,"o":"m 472 -149 b 167 121 260 -162 167 -60 l 167 318 b 69 388 167 385 129 394 l 69 589 b 167 658 129 582 167 592 l 167 856 b 472 1125 167 1036 260 1139 l 472 925 b 375 856 413 932 375 922 l 375 658 b 301 489 375 582 351 524 b 375 318 351 453 375 394 l 375 121 b 472 51 375 54 413 44 l 472 -149 "},"}":{"ha":500,"x_min":0,"x_max":0,"o":"m 28 51 b 125 121 88 44 125 54 l 125 318 b 199 489 125 394 149 453 b 125 658 149 524 125 582 l 125 856 b 28 925 125 922 88 932 l 28 1125 b 333 856 240 1139 333 1036 l 333 658 b 431 589 333 592 371 582 l 431 388 b 333 318 371 394 333 385 l 333 121 b 28 -149 333 -60 240 -162 "},"[":{"ha":444,"x_min":0,"x_max":0,"o":"m 278 911 l 278 61 l 417 61 l 417 -139 l 69 -139 l 69 1111 l 417 1111 l 417 911 "},"]":{"ha":444,"x_min":0,"x_max":0,"o":"m 375 -139 l 28 -139 l 28 61 l 167 61 l 167 911 l 28 911 l 28 1111 l 375 1111 "},"(":{"ha":444,"x_min":0,"x_max":0,"o":"m 222 -139 b 69 486 125 56 69 264 b 222 1111 69 708 125 917 l 431 1111 b 278 486 333 917 278 708 b 431 -139 278 264 333 56 l 222 -139 "},")":{"ha":444,"x_min":0,"x_max":0,"o":"m 14 -139 b 167 486 111 56 167 264 b 14 1111 167 708 111 917 l 222 1111 b 375 486 319 917 375 708 b 222 -139 375 264 319 56 "},"—":{"ha":1028,"x_min":0,"x_max":0,"o":"m 83 515 l 944 515 l 944 315 l 83 315 "},"–":{"ha":889,"x_min":0,"x_max":0,"o":"m 83 515 l 806 515 l 806 315 l 83 315 "},"-":{"ha":694,"x_min":0,"x_max":0,"o":"m 83 515 l 611 515 l 611 315 l 83 315 "},"«":{"ha":781,"x_min":0,"x_max":0,"o":"m 267 429 l 419 165 l 236 165 l 83 429 l 236 693 l 419 693 m 544 429 l 697 165 l 514 165 l 361 429 l 514 693 l 697 693 "},"»":{"ha":781,"x_min":0,"x_max":0,"o":"m 419 429 l 267 165 l 83 165 l 236 429 l 83 693 l 267 693 m 697 429 l 544 165 l 361 165 l 514 429 l 361 693 l 544 693 "},"‹":{"ha":503,"x_min":0,"x_max":0,"o":"m 267 429 l 419 165 l 236 165 l 83 429 l 236 693 l 419 693 "},"›":{"ha":503,"x_min":0,"x_max":0,"o":"m 419 429 l 267 165 l 83 165 l 236 429 l 83 693 l 267 693 "},"„":{"ha":681,"x_min":0,"x_max":0,"o":"m 229 -194 l 63 -194 l 118 215 l 340 215 m 507 -194 l 340 -194 l 396 215 l 618 215 "},"“":{"ha":681,"x_min":0,"x_max":0,"o":"m 174 972 l 340 972 l 285 563 l 63 563 m 451 972 l 618 972 l 563 563 l 340 563 "},"”":{"ha":681,"x_min":0,"x_max":0,"o":"m 229 563 l 63 563 l 118 972 l 340 972 m 507 563 l 340 563 l 396 972 l 618 972 "},"‘":{"ha":403,"x_min":0,"x_max":0,"o":"m 174 972 l 340 972 l 285 563 l 63 563 "},"’":{"ha":403,"x_min":0,"x_max":0,"o":"m 229 563 l 63 563 l 118 972 l 340 972 "},"‚":{"ha":403,"x_min":0,"x_max":0,"o":"m 229 -194 l 63 -194 l 118 215 l 340 215 "}," ":{"ha":347,"x_min":0,"x_max":0,"o":""},"¢":{"ha":738,"x_min":0,"x_max":0,"o":"m 407 325 b 542 403 468 325 519 354 l 724 299 b 410 119 664 190 546 119 b 328 128 381 119 354 122 l 286 0 l 203 0 l 251 153 b 42 486 125 210 42 335 b 410 853 42 693 199 853 b 476 847 432 853 454 851 l 517 972 l 600 972 l 553 825 b 724 675 625 794 686 742 l 542 569 b 489 626 531 593 511 613 l 392 325 l 407 325 m 250 486 b 317 351 250 426 275 379 l 411 647 l 407 647 b 250 486 317 647 250 582 "},"¤":{"ha":750,"x_min":0,"x_max":0,"o":"m 674 486 b 611 304 674 417 650 354 l 708 208 l 653 153 l 556 251 b 375 194 506 215 443 194 b 196 251 307 194 244 215 l 97 153 l 42 208 l 139 306 b 76 486 100 354 76 417 b 139 667 76 556 100 618 l 42 764 l 97 819 l 196 721 b 375 778 244 757 307 778 b 554 721 443 778 506 757 l 653 819 l 708 764 l 611 667 b 674 486 650 618 674 556 m 375 392 b 468 486 432 392 468 429 b 375 581 468 543 432 581 b 282 486 318 581 282 543 b 375 392 282 429 318 392 "},"$":{"ha":761,"x_min":0,"x_max":0,"o":"m 733 279 b 449 -17 733 106 614 3 l 449 -139 l 351 -139 l 351 -18 b 28 207 194 -7 78 74 l 219 318 b 351 201 249 251 289 213 l 351 393 b 333 400 346 396 339 397 b 68 703 213 449 68 517 b 351 990 68 883 204 976 l 351 1111 l 449 1111 l 449 988 b 722 786 568 972 668 908 l 535 676 b 449 767 517 725 489 753 l 449 579 b 733 279 569 528 733 482 m 290 701 b 351 625 290 675 303 653 l 351 771 b 290 701 311 761 290 735 m 449 204 b 511 276 496 217 511 247 b 449 353 511 311 490 332 l 449 204 "},"€":{"ha":856,"x_min":0,"x_max":0,"o":"m 828 200 b 500 -19 761 57 647 -19 b 115 353 288 -19 151 126 l 21 353 l 21 469 l 104 469 l 104 486 b 104 514 104 496 104 504 l 21 514 l 21 631 l 117 631 b 500 992 157 850 292 992 b 821 785 642 992 753 919 l 636 678 b 500 775 601 746 563 775 b 342 631 418 775 365 725 l 604 631 l 604 514 l 326 514 l 326 486 b 326 469 326 481 326 475 l 604 469 l 604 353 l 339 353 b 500 197 361 251 415 197 b 643 306 567 197 607 231 "},"ƒ":{"ha":614,"x_min":0,"x_max":0,"o":"m 614 771 b 475 699 567 796 489 783 l 457 589 l 571 589 l 571 389 l 422 389 l 349 -44 b 0 -279 311 -262 167 -321 l 0 -71 b 139 1 47 -96 125 -83 l 204 389 l 99 389 l 99 589 l 239 589 l 265 744 b 614 979 303 963 447 1021 l 614 771 "},"₽":{"ha":840,"x_min":0,"x_max":0,"o":"m 333 319 l 333 263 l 625 263 l 625 126 l 333 126 l 333 0 l 111 0 l 111 126 l 14 126 l 14 263 l 111 263 l 111 319 l 14 319 l 14 514 l 111 514 l 111 972 l 479 972 b 819 639 671 972 819 824 b 479 319 819 454 671 319 m 333 514 l 479 514 b 597 639 547 514 597 568 b 479 764 597 710 547 764 l 333 764 "},"£":{"ha":806,"x_min":0,"x_max":0,"o":"m 792 214 l 792 0 l 42 0 l 42 214 l 133 214 l 133 374 l 56 374 l 56 568 l 133 568 l 133 685 b 446 992 133 899 294 992 b 760 785 592 992 707 915 l 567 674 b 453 775 546 740 515 775 b 356 675 397 775 356 740 l 356 568 l 625 568 l 625 374 l 356 374 l 356 214 "},"¥":{"ha":847,"x_min":0,"x_max":0,"o":"m 622 510 l 750 510 l 750 388 l 556 388 l 549 374 l 549 332 l 750 332 l 750 210 l 549 210 l 549 0 l 326 0 l 326 210 l 97 210 l 97 332 l 326 332 l 326 374 l 319 388 l 97 388 l 97 510 l 253 510 l 0 972 l 253 972 l 438 597 l 622 972 l 875 972 "},"+":{"ha":778,"x_min":0,"x_max":0,"o":"m 708 389 l 486 389 l 486 167 l 292 167 l 292 389 l 69 389 l 69 583 l 292 583 l 292 806 l 486 806 l 486 583 l 708 583 "},"−":{"ha":778,"x_min":0,"x_max":0,"o":"m 69 583 l 708 583 l 708 389 l 69 389 "},"×":{"ha":729,"x_min":0,"x_max":0,"o":"m 501 486 l 660 328 l 522 192 l 365 350 l 207 192 l 69 328 l 228 486 l 69 644 l 207 781 l 365 624 l 522 781 l 660 644 "},"÷":{"ha":778,"x_min":0,"x_max":0,"o":"m 389 635 b 264 760 318 635 264 689 b 389 885 264 831 318 885 b 514 760 460 885 514 831 b 389 635 514 689 460 635 m 56 583 l 722 583 l 722 389 l 56 389 m 389 88 b 264 213 318 88 264 142 b 389 338 264 283 318 338 b 514 213 460 338 514 283 b 389 88 514 142 460 88 "},"=":{"ha":722,"x_min":0,"x_max":0,"o":"m 56 729 l 667 729 l 667 535 l 56 535 m 56 438 l 667 438 l 667 243 l 56 243 "},"≠":{"ha":722,"x_min":0,"x_max":0,"o":"m 446 535 l 401 438 l 667 438 l 667 243 l 314 243 l 236 69 l 111 69 l 189 243 l 56 243 l 56 438 l 276 438 l 321 535 l 56 535 l 56 729 l 408 729 l 486 903 l 611 903 l 533 729 l 667 729 l 667 535 "},">":{"ha":736,"x_min":0,"x_max":0,"o":"m 681 576 l 681 396 l 56 125 l 56 339 l 444 486 l 56 633 l 56 847 "},"<":{"ha":736,"x_min":0,"x_max":0,"o":"m 681 633 l 292 486 l 681 339 l 681 125 l 56 396 l 56 576 l 681 847 "},"≥":{"ha":736,"x_min":0,"x_max":0,"o":"m 681 694 l 681 514 l 56 278 l 56 492 l 444 604 l 56 717 l 56 931 m 56 250 l 681 250 l 681 56 l 56 56 "},"≤":{"ha":736,"x_min":0,"x_max":0,"o":"m 681 717 l 292 604 l 681 492 l 681 278 l 56 514 l 56 694 l 681 931 m 56 250 l 681 250 l 681 56 l 56 56 "},"±":{"ha":778,"x_min":0,"x_max":0,"o":"m 708 722 l 708 528 l 486 528 l 486 333 l 292 333 l 292 528 l 69 528 l 69 722 l 292 722 l 292 917 l 486 917 l 486 722 m 69 250 l 708 250 l 708 56 l 69 56 "},"≈":{"ha":778,"x_min":0,"x_max":0,"o":"m 404 515 b 181 529 264 574 232 557 l 56 568 b 374 749 107 767 221 808 b 556 776 486 704 533 692 l 722 696 b 404 515 685 511 556 451 m 56 276 b 374 457 93 461 222 521 b 597 443 514 399 546 415 l 722 404 b 404 224 671 206 557 164 b 222 196 292 268 244 281 "},"~":{"ha":833,"x_min":0,"x_max":0,"o":"m 778 547 b 432 367 726 349 583 303 b 222 339 292 425 258 438 l 56 419 b 401 600 107 618 250 664 b 611 628 542 542 574 531 "},"¬":{"ha":778,"x_min":0,"x_max":0,"o":"m 722 583 l 722 222 l 514 222 l 514 389 l 56 389 l 56 583 "},"∅":{"ha":1117,"x_min":0,"x_max":0,"o":"m 918 838 b 1061 486 1007 746 1061 622 b 558 -17 1061 208 836 -17 b 301 54 464 -17 376 10 l 236 -28 l 69 -28 l 199 135 b 56 486 110 226 56 350 b 558 989 56 764 281 989 b 815 918 653 989 740 963 l 881 1000 l 1047 1000 l 918 838 m 194 486 b 283 244 194 393 228 308 l 731 810 b 558 853 679 838 621 853 b 194 486 356 853 194 690 m 558 119 b 922 486 761 119 922 282 b 833 728 922 579 889 664 l 386 163 b 558 119 438 135 496 119 "},"∞":{"ha":1125,"x_min":0,"x_max":0,"o":"m 794 736 b 1056 486 943 736 1056 639 b 794 236 1056 333 943 236 b 563 349 704 236 625 289 b 331 236 500 289 421 236 b 69 486 182 236 69 333 b 331 736 69 639 182 736 b 563 624 421 736 500 683 b 794 736 625 683 704 736 m 342 424 b 439 486 375 424 407 446 b 342 549 407 526 375 549 b 278 486 304 549 278 521 b 342 424 278 451 304 424 m 783 424 b 847 486 821 424 847 451 b 783 549 847 521 821 549 b 686 486 750 549 718 526 b 783 424 718 446 750 424 "},"∫":{"ha":614,"x_min":0,"x_max":0,"o":"m 0 -75 b 139 -3 47 -100 125 -87 l 265 740 b 614 975 303 958 447 1017 l 614 767 b 475 694 567 792 489 779 l 349 -49 b 0 -283 311 -267 167 -325 "},"∏":{"ha":889,"x_min":0,"x_max":0,"o":"m 83 972 l 806 972 l 806 -278 l 597 -278 l 597 772 l 292 772 l 292 -278 l 83 -278 "},"∑":{"ha":792,"x_min":0,"x_max":0,"o":"m 42 -104 l 325 361 l 63 797 l 63 972 l 715 972 l 715 772 l 310 772 l 557 361 l 290 -78 l 736 -78 l 736 -278 l 42 -278 "},"√":{"ha":953,"x_min":0,"x_max":0,"o":"m 203 258 l 56 258 l 56 458 l 322 458 l 449 240 l 742 1111 l 953 1111 l 565 0 l 365 0 "},"µ":{"ha":861,"x_min":0,"x_max":0,"o":"m 833 194 l 833 0 l 743 0 b 586 60 675 0 622 21 b 392 -19 549 11 481 -19 b 285 3 354 -19 318 -12 l 285 -278 l 76 -278 l 76 694 l 285 694 l 285 299 b 406 172 285 213 339 172 b 535 315 482 172 535 217 l 535 694 l 743 694 l 743 236 b 785 194 743 210 758 194 "},"∂":{"ha":814,"x_min":0,"x_max":0,"o":"m 336 992 b 758 486 554 992 758 793 b 363 -19 758 147 579 -19 b 56 278 165 -19 56 114 b 369 604 56 465 174 604 b 544 556 436 604 496 586 b 307 797 525 708 444 794 b 154 754 257 799 206 783 l 154 942 b 336 992 208 976 268 992 m 371 175 b 544 382 472 175 526 258 b 401 424 501 411 453 424 b 264 285 326 424 264 374 b 371 175 264 213 313 175 "},"%":{"ha":1089,"x_min":0,"x_max":0,"o":"m 297 519 b 56 756 158 519 56 625 b 297 992 56 886 158 992 b 538 756 435 992 538 890 b 297 519 538 625 435 519 m 799 847 l 890 794 l 263 99 l 171 153 m 296 679 b 371 756 340 679 371 715 b 296 832 371 799 340 832 b 222 756 253 832 222 799 b 296 679 222 713 253 679 m 793 -17 b 551 219 654 -17 551 89 b 793 456 551 350 654 456 b 1033 219 931 456 1033 350 b 793 -17 1033 89 931 -17 m 792 143 b 867 219 836 143 867 179 b 792 296 867 263 836 296 b 718 219 749 296 718 263 b 792 143 718 176 749 143 "},"‰":{"ha":1617,"x_min":0,"x_max":0,"o":"m 297 519 b 56 756 158 519 56 625 b 297 992 56 886 158 992 b 538 756 435 992 538 890 b 297 519 538 625 435 519 m 799 847 l 890 794 l 263 99 l 171 153 m 296 679 b 371 756 340 679 371 715 b 296 832 371 799 340 832 b 222 756 253 832 222 799 b 296 679 222 713 253 679 m 793 -17 b 551 219 654 -17 551 89 b 793 456 551 350 654 456 b 1033 219 931 456 1033 350 b 793 -17 1033 89 931 -17 m 1321 -17 b 1079 219 1182 -17 1079 89 b 1321 456 1079 350 1182 456 b 1561 219 1458 456 1561 350 b 1321 -17 1561 89 1458 -17 m 792 143 b 867 219 836 143 867 179 b 792 296 867 263 836 296 b 718 219 749 296 718 263 b 792 143 718 176 749 143 m 1319 143 b 1394 219 1364 143 1394 179 b 1319 296 1394 263 1364 296 b 1246 219 1276 296 1246 263 b 1319 143 1246 176 1276 143 "},"↑":{"ha":944,"x_min":0,"x_max":0,"o":"m 889 281 l 576 593 l 576 0 l 368 0 l 368 593 l 56 281 l 56 556 l 472 972 l 889 556 "},"↗":{"ha":896,"x_min":0,"x_max":0,"o":"m 840 864 l 840 275 l 646 81 l 646 528 l 196 79 l 56 219 l 504 669 l 57 669 l 251 864 "},"→":{"ha":1097,"x_min":0,"x_max":0,"o":"m 1042 486 l 625 69 l 350 69 l 667 386 l 56 386 l 56 586 l 667 586 l 350 903 l 625 903 "},"↘":{"ha":896,"x_min":0,"x_max":0,"o":"m 840 682 l 840 93 l 251 93 l 57 288 l 504 288 l 56 738 l 196 878 l 646 429 l 646 876 "},"↓":{"ha":944,"x_min":0,"x_max":0,"o":"m 889 692 l 889 417 l 472 0 l 56 417 l 56 692 l 368 379 l 368 972 l 576 972 l 576 379 "},"↙":{"ha":896,"x_min":0,"x_max":0,"o":"m 392 288 l 839 288 l 644 93 l 56 93 l 56 682 l 250 876 l 250 429 l 700 878 l 840 738 "},"←":{"ha":1097,"x_min":0,"x_max":0,"o":"m 1042 386 l 431 386 l 747 69 l 472 69 l 56 486 l 472 903 l 747 903 l 431 586 l 1042 586 "},"↖":{"ha":896,"x_min":0,"x_max":0,"o":"m 700 79 l 250 528 l 250 81 l 56 275 l 56 864 l 644 864 l 839 669 l 392 669 l 840 219 "},"↔":{"ha":1528,"x_min":0,"x_max":0,"o":"m 1472 486 l 1083 97 l 814 97 l 1099 386 l 425 386 l 714 97 l 444 97 l 56 486 l 444 875 l 714 875 l 425 586 l 1103 586 l 814 875 l 1083 875 "},"↕":{"ha":889,"x_min":0,"x_max":0,"o":"m 549 821 l 549 151 l 833 436 l 833 167 l 444 -222 l 56 167 l 56 436 l 340 151 l 340 821 l 56 536 l 56 806 l 444 1194 l 833 806 l 833 536 "},"◊":{"ha":778,"x_min":0,"x_max":0,"o":"m 56 486 l 314 972 l 464 972 l 722 486 l 464 0 l 314 0 m 497 486 l 389 690 l 281 486 l 389 282 "},"@":{"ha":1075,"x_min":0,"x_max":0,"o":"m 547 850 b 1033 375 857 850 1033 604 b 806 71 1033 176 938 71 b 615 179 707 71 643 114 b 482 118 583 140 538 118 b 285 347 365 118 285 215 b 482 576 285 479 365 576 b 601 531 529 576 571 560 l 601 560 l 771 560 l 771 232 b 849 140 771 175 794 140 b 978 375 924 140 978 215 b 547 800 978 614 790 800 b 97 347 294 800 97 603 b 572 -106 97 86 297 -106 b 793 -72 658 -106 729 -94 l 793 -125 b 572 -156 732 -144 661 -156 b 42 347 269 -156 42 56 b 547 850 42 625 258 850 m 529 268 b 600 347 572 268 600 301 b 529 426 600 394 572 426 b 457 347 485 426 457 394 b 529 268 457 301 485 268 "},"&":{"ha":942,"x_min":0,"x_max":0,"o":"m 740 -36 l 654 57 b 403 -19 586 10 503 -19 b 56 274 203 -19 56 90 b 211 553 56 385 111 489 b 171 707 186 596 171 644 b 483 992 171 871 297 992 b 803 779 624 992 743 922 l 613 669 b 486 775 588 735 549 775 b 393 693 431 775 393 740 b 469 556 393 639 426 603 l 649 357 b 694 510 668 401 683 453 l 881 404 b 792 200 863 336 833 264 l 914 64 m 421 183 b 518 206 457 183 489 190 l 340 397 l 332 406 b 281 297 296 376 281 336 b 421 183 281 232 322 183 "},"¶":{"ha":969,"x_min":0,"x_max":0,"o":"m 903 792 l 817 792 l 817 -278 l 622 -278 l 622 792 l 528 792 l 528 -278 l 333 -278 l 333 361 b 28 667 164 361 28 499 b 333 972 28 836 164 972 l 903 972 "},"§":{"ha":767,"x_min":0,"x_max":0,"o":"m 718 406 b 638 224 718 331 688 268 b 679 86 663 189 679 144 b 390 -156 679 -81 543 -156 b 76 17 242 -156 132 -108 l 264 124 b 390 25 290 51 332 25 b 471 86 449 25 471 51 b 274 203 471 139 374 161 b 63 444 169 246 63 308 b 146 619 63 521 94 579 b 108 756 122 654 108 699 b 383 992 108 918 244 992 b 669 814 500 992 614 938 l 497 721 b 383 811 469 778 435 811 b 317 756 339 811 317 789 b 497 639 317 701 401 676 b 718 406 604 597 718 539 m 271 458 b 368 367 271 413 313 388 b 488 324 404 353 446 340 b 510 378 501 336 510 353 b 399 474 510 428 463 450 b 293 513 365 486 329 497 b 271 458 279 500 271 483 "},"©":{"ha":1089,"x_min":0,"x_max":0,"o":"m 544 -17 b 42 486 267 -17 42 208 b 544 989 42 764 267 989 b 1047 486 822 989 1047 764 b 544 -17 1047 208 822 -17 m 544 33 b 992 486 792 33 992 236 b 544 939 992 736 792 939 b 97 486 297 939 97 736 b 544 33 97 236 297 33 m 549 213 b 272 486 397 213 272 338 b 549 760 272 635 397 760 b 783 625 644 760 733 710 l 631 536 b 544 583 617 558 590 583 b 447 486 485 583 447 536 b 544 389 447 436 485 389 b 631 436 590 389 617 414 l 783 347 b 549 213 735 263 644 213 "},"®":{"ha":1089,"x_min":0,"x_max":0,"o":"m 544 989 b 1047 486 822 989 1047 764 b 544 -17 1047 208 822 -17 b 42 486 267 -17 42 208 b 544 989 42 764 267 989 m 544 33 b 992 486 792 33 992 236 b 544 939 992 736 792 939 b 97 486 297 939 97 736 b 544 33 97 236 297 33 m 765 571 b 694 417 765 504 738 451 l 800 229 l 618 229 l 551 371 l 513 371 l 513 229 l 343 229 l 343 743 l 565 743 b 765 571 668 743 765 678 m 513 510 l 547 510 b 596 550 576 510 596 526 b 547 590 596 581 576 590 l 513 590 "},"™":{"ha":661,"x_min":0,"x_max":0,"o":"m 288 886 l 211 886 l 211 694 l 118 694 l 118 886 l 42 886 l 42 972 l 288 972 m 619 972 l 619 694 l 531 694 l 531 833 l 471 744 l 463 744 l 403 833 l 403 694 l 314 694 l 314 972 l 403 972 l 467 876 l 531 972 "},"°":{"ha":564,"x_min":0,"x_max":0,"o":"m 282 653 b 42 889 143 653 42 760 b 282 1125 42 1019 143 1125 b 522 889 421 1125 522 1019 b 282 653 522 760 424 653 m 282 819 b 350 889 324 819 350 847 b 282 958 350 929 322 958 b 214 889 242 958 214 929 b 282 819 214 849 242 819 "},"|":{"ha":375,"x_min":0,"x_max":0,"o":"m 83 1000 l 292 1000 l 292 -278 l 83 -278 "},"¦":{"ha":375,"x_min":0,"x_max":0,"o":"m 83 1000 l 292 1000 l 292 486 l 83 486 m 83 236 l 292 236 l 292 -278 l 83 -278 "},"†":{"ha":667,"x_min":0,"x_max":0,"o":"m 611 599 l 438 599 l 438 0 l 229 0 l 229 599 l 56 599 l 56 799 l 229 799 l 229 972 l 438 972 l 438 799 l 611 799 "},"‡":{"ha":667,"x_min":0,"x_max":0,"o":"m 438 599 l 438 374 l 611 374 l 611 174 l 438 174 l 438 0 l 229 0 l 229 174 l 56 174 l 56 374 l 229 374 l 229 599 l 56 599 l 56 799 l 229 799 l 229 972 l 438 972 l 438 799 l 611 799 l 611 599 "},"℮":{"ha":1083,"x_min":0,"x_max":0,"o":"m 542 986 b 1056 486 849 986 1056 763 b 1035 465 1056 472 1049 465 l 257 465 b 236 444 243 465 236 458 l 236 178 b 246 151 236 167 239 160 b 569 28 321 72 424 28 b 890 163 707 28 815 78 b 915 175 897 171 904 175 l 967 175 b 979 149 985 175 992 163 b 569 -14 886 49 746 -14 b 28 486 235 -14 28 210 b 542 986 28 763 235 986 m 847 794 b 838 821 847 806 844 813 b 542 944 763 900 660 944 b 246 821 424 944 321 900 b 236 794 239 813 236 806 l 236 528 b 257 507 236 514 243 507 l 826 507 b 847 528 840 507 847 514 l 847 794 "},"№":{"ha":1453,"x_min":0,"x_max":0,"o":"m 1171 519 b 931 756 1032 519 931 626 b 1171 992 931 886 1032 992 b 1411 756 1310 992 1411 886 b 1171 519 1411 626 1313 519 m 847 972 l 847 0 l 681 0 l 306 528 l 306 0 l 83 0 l 83 972 l 250 972 l 625 444 l 625 972 m 1171 686 b 1239 756 1213 686 1239 714 b 1171 825 1239 796 1211 825 b 1103 756 1131 825 1103 796 b 1171 686 1103 715 1131 686 m 950 450 l 1397 450 l 1397 256 l 950 256 "},"^":{"ha":806,"x_min":0,"x_max":0,"o":"m 750 500 l 528 500 l 403 732 l 278 500 l 56 500 l 328 972 l 478 972 "},"̈":{"ha":0,"x_min":0,"x_max":0,"o":"m -396 750 b -500 854 -453 750 -500 797 b -396 958 -500 911 -453 958 b -292 854 -339 958 -292 911 b -396 750 -292 797 -339 750 m -132 750 b -236 854 -189 750 -236 797 b -132 958 -236 911 -189 958 b -28 854 -75 958 -28 911 b -132 750 -28 797 -75 750 "},"̇":{"ha":0,"x_min":0,"x_max":0,"o":"m -146 757 b -264 875 -210 757 -264 811 b -146 993 -264 939 -210 993 b -28 875 -82 993 -28 939 b -146 757 -28 811 -82 757 "},"̀":{"ha":0,"x_min":0,"x_max":0,"o":"m -139 972 l -389 972 l -228 778 l -28 778 "},"́":{"ha":0,"x_min":0,"x_max":0,"o":"m -189 778 l -28 972 l -278 972 l -389 778 "},"̋":{"ha":0,"x_min":0,"x_max":0,"o":"m -415 764 l -296 958 l -510 958 l -621 764 m -161 764 l -28 958 l -242 958 l -367 764 "},"̂":{"ha":0,"x_min":0,"x_max":0,"o":"m -229 764 l -278 840 l -326 764 l -528 764 l -381 972 l -175 972 l -28 764 "},"̌":{"ha":0,"x_min":0,"x_max":0,"o":"m -28 972 l -175 764 l -381 764 l -528 972 l -326 972 l -278 896 l -229 972 "},"̆":{"ha":0,"x_min":0,"x_max":0,"o":"m -271 753 b -514 961 -428 753 -514 829 l -331 961 b -271 897 -331 921 -310 897 b -211 961 -232 897 -211 921 l -28 961 b -271 753 -28 829 -114 753 "},"̊":{"ha":0,"x_min":0,"x_max":0,"o":"m -219 743 b -404 917 -328 743 -404 818 b -219 1090 -404 1015 -328 1090 b -35 917 -108 1090 -35 1015 b -219 743 -35 818 -108 743 m -219 869 b -169 917 -186 869 -169 890 b -219 964 -169 943 -186 964 b -268 917 -251 964 -268 943 b -219 869 -268 890 -251 869 "},"̃":{"ha":0,"x_min":0,"x_max":0,"o":"m -512 768 b -240 953 -512 1006 -367 1031 b -181 986 -193 924 -181 931 l -14 986 b -286 801 -14 749 -160 724 b -346 768 -333 831 -346 824 l -512 768 "},"̄":{"ha":0,"x_min":0,"x_max":0,"o":"m -444 943 l -28 943 l -28 776 l -444 776 "},"̒":{"ha":0,"x_min":0,"x_max":0,"o":"m -236 1069 l -42 1069 l -28 1361 l -194 1361 "},"̦":{"ha":0,"x_min":0,"x_max":0,"o":"m -28 -83 l -222 -83 l -236 -375 l -69 -375 "},"̧":{"ha":0,"x_min":0,"x_max":0,"o":"m -115 -64 b -28 -171 -78 -74 -28 -104 b -340 -300 -28 -258 -107 -314 l -340 -156 b -208 -136 -250 -162 -208 -154 b -282 -108 -208 -119 -237 -112 l -282 0 l -115 0 l -115 -64 "},"̨":{"ha":0,"x_min":0,"x_max":0,"o":"m -164 -297 b -303 -171 -240 -297 -303 -258 b -214 0 -303 -118 -267 -56 l -42 0 b -104 -118 -82 -44 -104 -89 b -74 -154 -106 -140 -94 -154 b -42 -149 -65 -156 -54 -153 l -42 -274 b -164 -297 -79 -289 -114 -297 "},"´":{"ha":417,"x_min":0,"x_max":0,"o":"m 228 778 l 389 972 l 139 972 l 28 778 "},"˘":{"ha":542,"x_min":0,"x_max":0,"o":"m 271 753 b 28 961 114 753 28 829 l 211 961 b 271 897 211 921 232 897 b 331 961 310 897 331 921 l 514 961 b 271 753 514 829 428 753 "},"ˇ":{"ha":556,"x_min":0,"x_max":0,"o":"m 528 972 l 381 764 l 175 764 l 28 972 l 229 972 l 278 896 l 326 972 "},"¸":{"ha":368,"x_min":0,"x_max":0,"o":"m 253 -64 b 340 -171 290 -74 340 -104 b 28 -300 340 -258 261 -314 l 28 -156 b 160 -136 118 -162 160 -154 b 86 -108 160 -119 131 -112 l 86 0 l 253 0 l 253 -64 "},"ˆ":{"ha":556,"x_min":0,"x_max":0,"o":"m 326 764 l 278 840 l 229 764 l 28 764 l 175 972 l 381 972 l 528 764 "},"¨":{"ha":528,"x_min":0,"x_max":0,"o":"m 132 750 b 28 854 75 750 28 797 b 132 958 28 911 75 958 b 236 854 189 958 236 911 b 132 750 236 797 189 750 m 396 750 b 292 854 339 750 292 797 b 396 958 292 911 339 958 b 500 854 453 958 500 911 b 396 750 500 797 453 750 "},"˙":{"ha":306,"x_min":0,"x_max":0,"o":"m 146 757 b 28 875 82 757 28 811 b 146 993 28 939 82 993 b 264 875 210 993 264 939 b 146 757 264 811 210 757 "},"`":{"ha":417,"x_min":0,"x_max":0,"o":"m 278 972 l 28 972 l 189 778 l 389 778 "},"˝":{"ha":649,"x_min":0,"x_max":0,"o":"m 233 764 l 353 958 l 139 958 l 28 764 m 488 764 l 621 958 l 407 958 l 282 764 "},"¯":{"ha":472,"x_min":0,"x_max":0,"o":"m 28 943 l 444 943 l 444 776 l 28 776 "},"˛":{"ha":317,"x_min":0,"x_max":0,"o":"m 167 -297 b 28 -171 90 -297 28 -258 b 117 0 28 -118 64 -56 l 289 0 b 226 -118 249 -44 226 -89 b 257 -154 225 -140 236 -154 b 289 -149 265 -156 276 -153 l 289 -274 b 167 -297 251 -289 217 -297 "},"˚":{"ha":425,"x_min":0,"x_max":0,"o":"m 213 743 b 28 917 104 743 28 818 b 213 1090 28 1015 104 1090 b 397 917 324 1090 397 1015 b 213 743 397 818 324 743 m 213 869 b 263 917 246 869 263 890 b 213 964 263 943 246 964 b 164 917 181 964 164 943 b 213 869 164 890 181 869 "},"˜":{"ha":554,"x_min":0,"x_max":0,"o":"m 28 768 b 300 953 28 1006 174 1031 b 360 986 347 924 360 931 l 526 986 b 254 801 526 749 381 724 b 194 768 207 831 194 824 l 28 768 "}}}
